<svg xmlns="http://www.w3.org/2000/svg" xmlns:xlink="http://www.w3.org/1999/xlink" width="400" height="150" viewBox="0 0 400 150"><defs><clipPath id="b"><rect width="400" height="150"/></clipPath></defs><g id="a" clip-path="url(#b)"><g transform="translate(51 11)"><g transform="translate(199.748 1.475)"><rect width="72.729" height="97.992" transform="translate(77.093 99.57) rotate(180)" fill="#cbe1fd"/><path d="M3319.3,588.92V579.6l71.227-50h.537v8.937Z" transform="translate(-3314.454 -527.5)" fill="#fff" opacity="0.35"/><path d="M3319.3,575.5V529.6h65.375Z" transform="translate(-3314.454 -527.5)" fill="#fff" opacity="0.35"/><rect width="75.91" height="101.145" transform="translate(2.773)" fill="none" stroke="#cbe1fd" stroke-miterlimit="10" stroke-width="6"/><rect width="81.007" height="1.91" transform="translate(0 1.577)" fill="#fff" stroke="#cbe1fd" stroke-miterlimit="10" stroke-width="6"/><rect width="81.007" height="1.91" transform="translate(0 4.764)" fill="#fff" stroke="#cbe1fd" stroke-miterlimit="10" stroke-width="6"/><rect width="81.007" height="1.91" transform="translate(0 7.945)" fill="#fff" stroke="#cbe1fd" stroke-miterlimit="10" stroke-width="6"/><rect width="81.007" height="1.91" transform="translate(0 11.133)" fill="#fff" stroke="#cbe1fd" stroke-miterlimit="10" stroke-width="6"/><rect width="81.007" height="1.91" transform="translate(0 14.32)" fill="#fff" stroke="#cbe1fd" stroke-miterlimit="10" stroke-width="6"/></g><g transform="translate(264.445 81.803)"><g transform="translate(10.091)"><path d="M4360.851,1692.52c-2.875,4.357-8.3,6.735-10.69,5.39-2.318-1.305-2.515-7.721.36-12.077s7.687-6.389,10.48-4.547S4363.727,1688.164,4360.851,1692.52Z" transform="translate(-4348.393 -1680.606)" fill="#fa4d56"/><path d="M4375.383,1723.389s-2.9-23.509,10.5-31.189" transform="translate(-4373.303 -1691.412)" fill="none" stroke="#6562ce" stroke-linecap="round" stroke-miterlimit="10" stroke-width="5"/><line x1="8.027" y2="0.822" transform="translate(6.457 6.035)" fill="none" stroke="#6562ce" stroke-linecap="round" stroke-miterlimit="10" stroke-width="5"/><line x1="8.421" y2="0.856" transform="translate(5.947 6.884)" fill="none" stroke="#6562ce" stroke-linecap="round" stroke-miterlimit="10" stroke-width="5"/><line x2="2.039" y2="6.028" transform="translate(2.216 5.274)" fill="none" stroke="#6562ce" stroke-linecap="round" stroke-miterlimit="10" stroke-width="5"/></g><g transform="translate(9.778 16.898)"><path d="M4496.491,1936.259c-.89,2.3-4.785,2.922-8.706,1.407s-5.431-4.54-5.261-5.539c.218-1.264,4.839-3.425,8.482-2.773C4495.139,1930.095,4497.375,1933.962,4496.491,1936.259Z" transform="translate(-4473.083 -1929.234)" fill="#fa4d56"/><path d="M4343.782,1976.914s-.354-10.324,10.555-12.444a13.359,13.359,0,0,1,12.709,4.384" transform="translate(-4343.781 -1961.835)" fill="none" stroke="#6562ce" stroke-linecap="round" stroke-miterlimit="10" stroke-width="5"/><line y1="1.706" x2="3.724" transform="translate(16.51 1.092)" fill="none" stroke="#6562ce" stroke-linecap="round" stroke-miterlimit="10" stroke-width="5"/><line y1="1.618" x2="3.466" transform="translate(17.441 1.473)" fill="none" stroke="#6562ce" stroke-linecap="round" stroke-miterlimit="10" stroke-width="5"/><line x2="1.448" y2="6.321" transform="translate(14.974 2.499)" fill="none" stroke="#6562ce" stroke-linecap="round" stroke-miterlimit="10" stroke-width="5"/></g><g transform="translate(0 13.437)"><path d="M4207.5,1881.519c1.768,2.671,1.5,6.457.055,7.333-.87.537-4.54-.428-6.314-3.1s-1.761-5.879-.048-7.014S4205.736,1878.848,4207.5,1881.519Z" transform="translate(-4199.912 -1878.319)" fill="#fa4d56"/><path d="M4226.736,1904.484s.992-13.355-7.136-17.984" transform="translate(-4218.262 -1885.944)" fill="none" stroke="#6562ce" stroke-linecap="round" stroke-miterlimit="10" stroke-width="5"/><line x2="5.131" transform="translate(0.203 4.457)" fill="none" stroke="#6562ce" stroke-linecap="round" stroke-miterlimit="10" stroke-width="5"/><line x2="5.383" transform="translate(0.461 5.341)" fill="none" stroke="#6562ce" stroke-linecap="round" stroke-miterlimit="10" stroke-width="5"/><line x1="0.918" y2="3.677" transform="translate(6.796 3.567)" fill="none" stroke="#6562ce" stroke-linecap="round" stroke-miterlimit="10" stroke-width="5"/></g><g transform="translate(3.88 31.984)"><path d="M4270.844,2153.477v9.284a2.367,2.367,0,0,1-.128.761,2.277,2.277,0,0,1-2.148,1.516h-9.284a2.294,2.294,0,0,1-2.148-1.509,2.226,2.226,0,0,1-.136-.768v-9.284a2.285,2.285,0,0,1,2.284-2.277h9.284a2.267,2.267,0,0,1,2.276,2.277Z" transform="translate(-4257 -2151.2)" fill="#fff" stroke="#88bed7" stroke-miterlimit="10" stroke-width="5"/></g><g transform="translate(4.036 32.133)"><g transform="translate(0.585 1.563)"><ellipse cx="0.7" cy="0.7" rx="0.7" ry="0.7" transform="translate(3.106 0.007)" fill="#cbe1fd"/><ellipse cx="0.7" cy="0.7" rx="0.7" ry="0.7" transform="translate(6.212)" fill="#cbe1fd"/><ellipse cx="0.7" cy="0.7" rx="0.7" ry="0.7" transform="translate(9.318)" fill="#cbe1fd"/><path d="M4448.607,2176.964v.829h-.007a.7.7,0,0,1-.068-1.393A2.224,2.224,0,0,1,4448.607,2176.964Z" transform="translate(-4435.667 -2176.4)" fill="#cbe1fd"/><ellipse cx="0.7" cy="0.7" rx="0.7" ry="0.7" transform="translate(0 0.007)" fill="#cbe1fd"/></g><g transform="translate(2.167)"><path d="M4338.2,2153.576a.7.7,0,0,1-1.4,0,.752.752,0,0,1,.021-.177h1.352A.543.543,0,0,1,4338.2,2153.576Z" transform="translate(-4333.7 -2153.4)" fill="#cbe1fd"/><path d="M4383.9,2153.67a.7.7,0,1,1-1.4,0,.682.682,0,0,1,.021-.17h1.353A.467.467,0,0,1,4383.9,2153.67Z" transform="translate(-4376.294 -2153.493)" fill="#cbe1fd"/><path d="M4429.6,2154.017a.7.7,0,0,1-1.284-.517A2.13,2.13,0,0,1,4429.6,2154.017Z" transform="translate(-4418.981 -2153.493)" fill="#cbe1fd"/><path d="M4292.023,2154.456a.7.7,0,0,1-.822-.544.686.686,0,0,1,.007-.313h1.353c0,.014.007.027.007.041A.691.691,0,0,1,4292.023,2154.456Z" transform="translate(-4291.186 -2153.586)" fill="#cbe1fd"/></g><g transform="translate(1.196 5.933)"><ellipse cx="0.7" cy="0.7" rx="0.7" ry="0.7" transform="translate(9.026)" fill="#cbe1fd"/><path d="M4452.055,2241.3v1.3a.7.7,0,0,1,0-1.3Z" transform="translate(-4439.726 -2241.26)" fill="#cbe1fd"/><ellipse cx="0.7" cy="0.7" rx="0.7" ry="0.7" transform="translate(5.92)" fill="#cbe1fd"/><ellipse cx="0.7" cy="0.7" rx="0.7" ry="0.7" transform="translate(2.814 0.007)" fill="#cbe1fd"/><ellipse cx="0.7" cy="0.7" rx="0.7" ry="0.7" transform="translate(0 0.129)" fill="#cbe1fd"/></g><g transform="translate(0 3.84)"><ellipse cx="0.7" cy="0.7" rx="0.7" ry="0.7" transform="translate(11.805)" fill="#cbe1fd"/><ellipse cx="0.7" cy="0.7" rx="0.7" ry="0.7" transform="translate(8.699 0.007)" fill="#cbe1fd"/><ellipse cx="0.7" cy="0.7" rx="0.7" ry="0.7" transform="translate(5.594 0.014)" fill="#cbe1fd"/><path d="M4259.477,2211.863a.8.8,0,0,1-.177.014v-1.393a.7.7,0,0,1,.177,1.38Z" transform="translate(-4259.3 -2210.443)" fill="#cbe1fd"/><ellipse cx="0.7" cy="0.7" rx="0.7" ry="0.7" transform="translate(2.447 0.034)" fill="#cbe1fd"/></g><g transform="translate(1.699 10.371)"><ellipse cx="0.7" cy="0.7" rx="0.7" ry="0.7" transform="translate(9.026)" fill="#cbe1fd"/><ellipse cx="0.7" cy="0.7" rx="0.7" ry="0.7" transform="translate(5.92)" fill="#cbe1fd"/><ellipse cx="0.7" cy="0.7" rx="0.7" ry="0.7" transform="translate(2.814 0.007)" fill="#cbe1fd"/><ellipse cx="0.7" cy="0.7" rx="0.7" ry="0.7" transform="translate(0 0.129)" fill="#cbe1fd"/></g><g transform="translate(0 8.278)"><path d="M4441.523,2275.438v.931a.7.7,0,1,1-.523-1.169A.729.729,0,0,1,4441.523,2275.438Z" transform="translate(-4427.999 -2275.2)" fill="#cbe1fd"/><ellipse cx="0.7" cy="0.7" rx="0.7" ry="0.7" transform="translate(9.196 0.007)" fill="#cbe1fd"/><ellipse cx="0.7" cy="0.7" rx="0.7" ry="0.7" transform="translate(6.09 0.007)" fill="#cbe1fd"/><path d="M4259.98,2277.182a.71.71,0,0,1-.68-.238v-.89a.677.677,0,0,1,.4-.238.7.7,0,0,1,.279,1.366Z" transform="translate(-4259.3 -2275.761)" fill="#cbe1fd"/><ellipse cx="0.7" cy="0.7" rx="0.7" ry="0.7" transform="translate(2.95 0.027)" fill="#cbe1fd"/></g><g transform="translate(0.442 12.648)"><path d="M4396.994,2340.393a.778.778,0,0,1-.021.177h-1.353a.721.721,0,0,1-.021-.17.7.7,0,0,1,1.394-.007Z" transform="translate(-4386.779 -2339.686)" fill="#cbe1fd"/><path d="M4441.954,2339.507a2.075,2.075,0,0,1-.754.639.7.7,0,0,1,.693-.646A.24.24,0,0,0,4441.954,2339.507Z" transform="translate(-4429.279 -2339.5)" fill="#cbe1fd"/><path d="M4351.275,2340.665h-1.352c0-.007-.007-.02-.007-.027a.7.7,0,0,1,1.367-.279A.777.777,0,0,1,4351.275,2340.665Z" transform="translate(-4344.187 -2339.782)" fill="#cbe1fd"/><path d="M4305.575,2340.665h-1.353c0-.007-.007-.02-.007-.027a.7.7,0,0,1,1.367-.279A.914.914,0,0,1,4305.575,2340.665Z" transform="translate(-4301.592 -2339.782)" fill="#cbe1fd"/><path d="M4266.656,2340.682a2.142,2.142,0,0,1-.856-.659.026.026,0,0,0,.021-.007.7.7,0,0,1,.822.544A.774.774,0,0,1,4266.656,2340.682Z" transform="translate(-4265.8 -2339.968)" fill="#cbe1fd"/></g></g></g><g transform="translate(57.444 0)"><path d="M1555.031,550.7v98.515c0,.863-4.193,1.563-9.366,1.563s-9.365-.7-9.365-1.563V550.7c0,.863,4.193,1.563,9.365,1.563S1555.031,551.57,1555.031,550.7Z" transform="translate(-1510.331 -545.691)" fill="#fff" stroke="#cbe1fd" stroke-miterlimit="10" stroke-width="6"/><path d="M1279.931,550.7v98.515c0,.863-4.194,1.563-9.366,1.563s-9.366-.7-9.366-1.563V550.7c0,.863,4.193,1.563,9.366,1.563S1279.931,551.57,1279.931,550.7Z" transform="translate(-1253.928 -545.691)" fill="#fff" stroke="#cbe1fd" stroke-miterlimit="10" stroke-width="6"/><path d="M1830.631,550.7v98.515c0,.863-4.193,1.563-9.365,1.563s-9.366-.7-9.366-1.563V550.7c0,.863,4.193,1.563,9.366,1.563S1830.631,551.57,1830.631,550.7Z" transform="translate(-1767.199 -545.691)" fill="#fff" stroke="#cbe1fd" stroke-miterlimit="10" stroke-width="6"/><path d="M2106.131,550.7v98.515c0,.863-4.194,1.563-9.366,1.563s-9.365-.7-9.365-1.563V550.7c0,.863,4.193,1.563,9.365,1.563S2106.131,551.57,2106.131,550.7Z" transform="translate(-2023.975 -545.691)" fill="#fff" stroke="#cbe1fd" stroke-miterlimit="10" stroke-width="6"/><path d="M2381.731,550.7v98.515c0,.863-4.193,1.563-9.365,1.563s-9.366-.7-9.366-1.563V550.7c0,.863,4.193,1.563,9.366,1.563S2381.731,551.57,2381.731,550.7Z" transform="translate(-2280.844 -545.691)" fill="#fff" stroke="#cbe1fd" stroke-miterlimit="10" stroke-width="6"/><path d="M1264.84,501.331H1155.015a.818.818,0,0,1-.815-.816h0a.818.818,0,0,1,.815-.816H1264.84a.818.818,0,0,1,.816.816h0A.818.818,0,0,1,1264.84,501.331Z" transform="translate(-1154.2 -498.157)" fill="#fa4d56" stroke="#fa4d56" stroke-miterlimit="10" stroke-width="5"/><g transform="translate(24.522 0)"><path d="M1517.922,479.848c0,1.6-.645,2.848-1.475,2.848-.727,0-1.325-.965-1.448-2.324h.326c.109,1.135.584,2,1.121,2,.619,0,1.142-1.155,1.142-2.521s-.523-2.521-1.142-2.521c-.347,0-.686.387-.9,1h-.346c.265-.836.727-1.325,1.25-1.325C1517.277,477,1517.922,478.251,1517.922,479.848Z" transform="translate(-1515 -477)" fill="#efaf00"/></g><g transform="translate(5.94 0)"><path d="M1244.522,479.848c0,1.6-.646,2.848-1.475,2.848-.727,0-1.325-.965-1.448-2.324h.326c.109,1.135.584,2,1.121,2,.619,0,1.142-1.155,1.142-2.521s-.523-2.521-1.142-2.521c-.347,0-.687.387-.9,1h-.347c.265-.836.727-1.325,1.251-1.325C1243.87,477,1244.522,478.251,1244.522,479.848Z" transform="translate(-1241.6 -477)" fill="#efaf00"/></g><g transform="translate(43.253)"><path d="M1792.048,477c-.537,0-1,.53-1.257,1.339h.347c.211-.612.544-1.006.911-1.006.618,0,1.142,1.155,1.142,2.521s-.523,2.522-1.142,2.522c-.544,0-1.006-.877-1.121-2h-.326c.122,1.339.714,2.331,1.448,2.331.822,0,1.475-1.251,1.475-2.848S1792.87,477,1792.048,477Z" transform="translate(-1790.6 -477)" fill="#efaf00"/></g><g transform="translate(61.984)"><path d="M2067.648,477c-.537,0-1,.53-1.258,1.346h.347c.211-.612.544-1.019.911-1.019.618,0,1.142,1.155,1.142,2.521s-.523,2.522-1.142,2.522c-.537,0-1.006-.87-1.122-2h-.326c.122,1.339.714,2.324,1.448,2.324.829,0,1.475-1.251,1.475-2.848S2068.47,477,2067.648,477Z" transform="translate(-2066.2 -477)" fill="#efaf00"/></g><g transform="translate(80.708)"><path d="M2343.148,477c-.537,0-1,.53-1.257,1.339h.346c.211-.612.544-1.006.911-1.006.618,0,1.142,1.155,1.142,2.521s-.523,2.522-1.142,2.522c-.544,0-1.006-.877-1.121-2h-.326c.122,1.346.714,2.331,1.448,2.331.829,0,1.475-1.251,1.475-2.848S2343.977,477,2343.148,477Z" transform="translate(-2341.7 -477)" fill="#efaf00"/></g><g transform="translate(99.439)"><path d="M2618.748,477c-.537,0-1,.53-1.258,1.339h.346c.211-.612.544-1.006.911-1.006.618,0,1.142,1.155,1.142,2.521s-.523,2.522-1.142,2.522c-.537,0-1.006-.87-1.122-2h-.326c.122,1.339.714,2.324,1.448,2.324.829,0,1.475-1.251,1.475-2.848S2619.577,477,2618.748,477Z" transform="translate(-2617.3 -477)" fill="#efaf00"/></g></g><g transform="translate(0 127.76)"><g transform="translate(54.827)"><path d="M3691.608,2359.607h21.878l-10.2-2.807H3681.4Z" transform="translate(-3507.023 -2356.8)" fill="#e4effd"/><path d="M3050.2,2359.607h21.885l-10.2-2.807H3040Z" transform="translate(-2909.216 -2356.8)" fill="#e4effd"/><path d="M2408.8,2359.607h21.885l-10.208-2.807H2398.6Z" transform="translate(-2311.408 -2356.8)" fill="#e4effd"/><path d="M1767.308,2359.607h21.885l-10.208-2.807H1757.1Z" transform="translate(-1713.507 -2356.8)" fill="#e4effd"/><path d="M1125.908,2359.607h21.878l-10.2-2.807H1115.7Z" transform="translate(-1115.7 -2356.8)" fill="#e4effd"/></g><g transform="translate(43.232 2.807)"><path d="M3521.009,2400.907h21.885l-10.208-2.807H3510.8Z" transform="translate(-3336.423 -2398.1)" fill="#e4effd"/><path d="M4160.508,2400.907h21.877l-10.2-2.807H4150.3Z" transform="translate(-3932.459 -2398.1)" fill="#e4effd"/><path d="M2879.608,2400.907h21.878l-10.2-2.807H2869.4Z" transform="translate(-2738.615 -2398.1)" fill="#e4effd"/><path d="M2238.2,2400.907h21.885l-10.2-2.807H2228Z" transform="translate(-2140.808 -2398.1)" fill="#e4effd"/><path d="M1596.8,2400.907h21.885l-10.2-2.807H1586.6Z" transform="translate(-1543.001 -2398.1)" fill="#e4effd"/><path d="M955.308,2400.907h21.885l-10.208-2.807H945.1Z" transform="translate(-945.1 -2398.1)" fill="#e4effd"/></g><g transform="translate(63.663 8.489)"><path d="M3821.608,2484.507h21.885l-10.208-2.807H3811.4Z" transform="translate(-3637.023 -2481.7)" fill="#e4effd"/><path d="M3180.2,2484.507h21.885l-10.2-2.807H3170Z" transform="translate(-3039.216 -2481.7)" fill="#e4effd"/><path d="M2538.8,2484.507h21.885l-10.2-2.807H2528.6Z" transform="translate(-2441.408 -2481.7)" fill="#e4effd"/><path d="M1897.4,2484.507h21.885l-10.208-2.807H1887.2Z" transform="translate(-1843.601 -2481.7)" fill="#e4effd"/><path d="M1255.908,2484.507h21.885l-10.208-2.807H1245.7Z" transform="translate(-1245.7 -2481.7)" fill="#e4effd"/></g><path d="M3991.9,2442.207h21.885l-10.2-2.807H3981.7Z" transform="translate(-3732.086 -2433.786)" fill="#e4effd"/><path d="M3350.5,2442.207h21.885l-10.2-2.807H3340.3Z" transform="translate(-3134.279 -2433.786)" fill="#e4effd"/><path d="M2709.008,2442.207h21.885l-10.208-2.807H2698.8Z" transform="translate(-2536.378 -2433.786)" fill="#e4effd"/><path d="M2067.608,2442.207h21.878l-10.2-2.807H2057.4Z" transform="translate(-1938.57 -2433.786)" fill="#e4effd"/><path d="M1426.2,2442.207h21.885l-10.2-2.807H1416Z" transform="translate(-1340.763 -2433.786)" fill="#e4effd"/><path d="M489.8,2359.607h21.885l-10.2-2.807H479.6Z" transform="translate(-468.005 -2356.8)" fill="#e4effd"/><path d="M319.2,2400.907h21.885l-10.2-2.807H309Z" transform="translate(-309 -2395.293)" fill="#e4effd"/><path d="M619.8,2484.507h21.885l-10.2-2.807H609.6Z" transform="translate(-589.17 -2473.211)" fill="#e4effd"/><path d="M790.1,2442.207h21.885l-10.208-2.807H779.9Z" transform="translate(-747.895 -2433.786)" fill="#e4effd"/></g><g transform="translate(6.457 23.224)"><path d="M448.775,838.879l-6.939,3.663H404v-18.65l3.908-5.193v20.084h40.677Z" transform="translate(-404 -818.7)" fill="#e4effd"/><g transform="translate(3.908)"><rect width="31.882" height="16.665" transform="translate(7.17 1.706)" fill="#cbe1fd"/><path d="M541.9,818.7v20.084h35.294V818.7Zm33.588,18.371H543.606V820.406h31.882Z" transform="translate(-536.436 -818.7)" fill="#fff" stroke="#88bed7" stroke-miterlimit="10" stroke-width="5"/><rect width="5.458" height="20.084" fill="#fff" stroke="#88bed7" stroke-miterlimit="10" stroke-width="5"/></g><g transform="translate(21.837 3.079)"><path d="M725.3,889.007v11.561a.691.691,0,0,0,.68.7h17.4a.691.691,0,0,0,.68-.7V889.007a.7.7,0,0,0-.68-.707h-17.4A.7.7,0,0,0,725.3,889.007Z" transform="translate(-725.3 -886.648)" fill="#fff"/><path d="M725.3,888.707v11.561a.691.691,0,0,0,.68.7h17.4a.691.691,0,0,0,.68-.7V888.707a.7.7,0,0,0-.68-.707h-17.4A.7.7,0,0,0,725.3,888.707Z" transform="translate(-725.3 -886.369)" fill="none" stroke="#88bed7" stroke-miterlimit="10" stroke-width="5"/><path d="M725.3,888.707v11.561a.691.691,0,0,0,.68.7h1.529a.691.691,0,0,0,.68-.7V888.707a.7.7,0,0,0-.68-.707H725.98A.7.7,0,0,0,725.3,888.707Z" transform="translate(-725.3 -886.369)" fill="none" stroke="#88bed7" stroke-miterlimit="10" stroke-width="5"/><g transform="translate(8.04 5.546)"><path d="M843.6,947.252v1.4a.176.176,0,0,0,.177.177H844.9a.175.175,0,0,1,.177.177v1.121a.176.176,0,0,0,.177.177h1.4a.176.176,0,0,0,.177-.177v-1.121a.175.175,0,0,1,.177-.177h1.121a.176.176,0,0,0,.177-.177v-1.4a.176.176,0,0,0-.177-.177h-1.121a.175.175,0,0,1-.177-.177v-1.121a.176.176,0,0,0-.177-.177h-1.393a.176.176,0,0,0-.177.177V946.9a.175.175,0,0,1-.177.177h-1.121A.173.173,0,0,0,843.6,947.252Z" transform="translate(-843.6 -945.6)" fill="#fa4d56"/></g><line y2="12.954" transform="translate(1.4 1.652)" fill="none" stroke="#88bed7" stroke-miterlimit="10" stroke-width="5"/><path d="M836.193,864h-3.242a.95.95,0,0,0-.951.951v.693h5.138v-.693A.936.936,0,0,0,836.193,864Z" transform="translate(-824.748 -864)" fill="none" stroke="#88bed7" stroke-miterlimit="10" stroke-width="5"/></g><g transform="translate(12.499 8.271)"><g transform="translate(4.384 4.873)"><path d="M658.248,1030h-1.271a.879.879,0,0,1-.877-.877V1026.4h3.025v2.719A.879.879,0,0,1,658.248,1030Z" transform="translate(-655.848 -1025.428)" fill="#fff" stroke="#fa4d56" stroke-miterlimit="10" stroke-width="5"/><path d="M655.649,1012.1h-2.956a.29.29,0,0,0-.292.292v.387a.29.29,0,0,0,.292.292h2.956a.29.29,0,0,0,.292-.292v-.387A.3.3,0,0,0,655.649,1012.1Z" transform="translate(-652.4 -1012.1)" fill="#fa4d56"/><g transform="translate(0.374 0.245)"><path d="M657.948,1016.169h0a.046.046,0,0,1-.048-.047v-.374a.047.047,0,0,1,.048-.048h0a.046.046,0,0,1,.048.048v.374A.046.046,0,0,1,657.948,1016.169Z" transform="translate(-657.9 -1015.7)" fill="#fff"/><path d="M664.548,1016.169h0a.046.046,0,0,1-.048-.047v-.374a.046.046,0,0,1,.048-.048h0a.046.046,0,0,1,.048.048v.374A.046.046,0,0,1,664.548,1016.169Z" transform="translate(-664.051 -1015.7)" fill="#fff"/><path d="M671.147,1016.169h0a.046.046,0,0,1-.047-.047v-.374a.046.046,0,0,1,.047-.048h0a.046.046,0,0,1,.048.048v.374A.046.046,0,0,1,671.147,1016.169Z" transform="translate(-670.203 -1015.7)" fill="#fff"/><path d="M677.748,1016.169h0a.046.046,0,0,1-.048-.047v-.374a.047.047,0,0,1,.048-.048h0a.046.046,0,0,1,.048.048v.374C677.8,1016.149,677.775,1016.169,677.748,1016.169Z" transform="translate(-676.354 -1015.7)" fill="#fff"/><path d="M684.348,1016.169h0a.046.046,0,0,1-.048-.047v-.374a.046.046,0,0,1,.048-.048h0a.047.047,0,0,1,.048.048v.374C684.4,1016.149,684.375,1016.169,684.348,1016.169Z" transform="translate(-682.506 -1015.7)" fill="#fff"/><path d="M691.048,1016.169h0a.046.046,0,0,1-.048-.047v-.374a.047.047,0,0,1,.048-.048h0a.046.046,0,0,1,.048.048v.374A.046.046,0,0,1,691.048,1016.169Z" transform="translate(-688.75 -1015.7)" fill="#fff"/><path d="M697.648,1016.169h0a.046.046,0,0,1-.048-.047v-.374a.046.046,0,0,1,.048-.048h0a.047.047,0,0,1,.048.048v.374A.046.046,0,0,1,697.648,1016.169Z" transform="translate(-694.902 -1015.7)" fill="#fff"/></g></g><g transform="translate(0 4.873)"><path d="M593.748,1030h-1.271a.879.879,0,0,1-.877-.877V1026.4h3.024v2.719A.879.879,0,0,1,593.748,1030Z" transform="translate(-591.349 -1025.428)" fill="#fff" stroke="#88bed7" stroke-miterlimit="10" stroke-width="5"/><path d="M591.149,1012.1h-2.956a.29.29,0,0,0-.292.292v.387a.29.29,0,0,0,.292.292h2.956a.29.29,0,0,0,.292-.292v-.387A.3.3,0,0,0,591.149,1012.1Z" transform="translate(-587.9 -1012.1)" fill="#88bed7"/><g transform="translate(0.374 0.245)"><path d="M593.448,1016.169h0a.046.046,0,0,1-.048-.047v-.374a.047.047,0,0,1,.048-.048h0a.046.046,0,0,1,.048.048v.374A.046.046,0,0,1,593.448,1016.169Z" transform="translate(-593.4 -1015.7)" fill="#fff"/><path d="M600.048,1016.169h0a.046.046,0,0,1-.048-.047v-.374a.047.047,0,0,1,.048-.048h0a.046.046,0,0,1,.048.048v.374A.046.046,0,0,1,600.048,1016.169Z" transform="translate(-599.551 -1015.7)" fill="#fff"/><path d="M606.647,1016.169h0a.046.046,0,0,1-.047-.047v-.374a.046.046,0,0,1,.047-.048h0a.046.046,0,0,1,.048.048v.374A.046.046,0,0,1,606.647,1016.169Z" transform="translate(-605.703 -1015.7)" fill="#fff"/><path d="M613.248,1016.169h0a.046.046,0,0,1-.048-.047v-.374a.046.046,0,0,1,.048-.048h0a.046.046,0,0,1,.048.048v.374A.046.046,0,0,1,613.248,1016.169Z" transform="translate(-611.854 -1015.7)" fill="#fff"/><path d="M619.848,1016.169h0a.046.046,0,0,1-.048-.047v-.374a.046.046,0,0,1,.048-.048h0a.047.047,0,0,1,.048.048v.374C619.9,1016.149,619.875,1016.169,619.848,1016.169Z" transform="translate(-618.006 -1015.7)" fill="#fff"/><path d="M626.548,1016.169h0a.046.046,0,0,1-.048-.047v-.374a.046.046,0,0,1,.048-.048h0a.046.046,0,0,1,.048.048v.374A.051.051,0,0,1,626.548,1016.169Z" transform="translate(-624.25 -1015.7)" fill="#fff"/><path d="M633.148,1016.169h0a.046.046,0,0,1-.048-.047v-.374a.046.046,0,0,1,.048-.048h0a.046.046,0,0,1,.048.048v.374A.046.046,0,0,1,633.148,1016.169Z" transform="translate(-630.402 -1015.7)" fill="#fff"/></g></g><g transform="translate(1.257)"><path d="M612.248,958.3h-1.271a.879.879,0,0,1-.877-.877V954.7h3.024v2.719A.879.879,0,0,1,612.248,958.3Z" transform="translate(-609.848 -953.728)" fill="#fff" stroke="#fa4d56" stroke-miterlimit="10" stroke-width="5"/><path d="M609.649,940.4h-2.957a.29.29,0,0,0-.292.292v.387a.29.29,0,0,0,.292.292h2.957a.29.29,0,0,0,.292-.292v-.387A.29.29,0,0,0,609.649,940.4Z" transform="translate(-606.4 -940.4)" fill="#fa4d56"/><g transform="translate(0.374 0.245)"><path d="M611.948,944.469h0a.046.046,0,0,1-.048-.048v-.374a.046.046,0,0,1,.048-.047h0a.046.046,0,0,1,.048.047v.374A.046.046,0,0,1,611.948,944.469Z" transform="translate(-611.9 -944)" fill="#fff"/><path d="M618.548,944.469h0a.046.046,0,0,1-.048-.048v-.374a.046.046,0,0,1,.048-.047h0a.046.046,0,0,1,.048.047v.374C618.6,944.449,618.575,944.469,618.548,944.469Z" transform="translate(-618.051 -944)" fill="#fff"/><path d="M625.248,944.469h0a.047.047,0,0,1-.048-.048v-.374a.046.046,0,0,1,.048-.047h0a.046.046,0,0,1,.048.047v.374A.051.051,0,0,1,625.248,944.469Z" transform="translate(-624.296 -944)" fill="#fff"/><path d="M631.848,944.469h0a.046.046,0,0,1-.048-.048v-.374a.046.046,0,0,1,.048-.047h0a.046.046,0,0,1,.048.047v.374A.046.046,0,0,1,631.848,944.469Z" transform="translate(-630.448 -944)" fill="#fff"/><path d="M638.448,944.469h0a.047.047,0,0,1-.048-.048v-.374a.046.046,0,0,1,.048-.047h0a.046.046,0,0,1,.047.047v.374A.046.046,0,0,1,638.448,944.469Z" transform="translate(-636.599 -944)" fill="#fff"/><path d="M645.048,944.469h0a.046.046,0,0,1-.047-.048v-.374a.046.046,0,0,1,.047-.047h0a.046.046,0,0,1,.048.047v.374A.046.046,0,0,1,645.048,944.469Z" transform="translate(-642.75 -944)" fill="#fff"/><path d="M651.648,944.469h0a.046.046,0,0,1-.048-.048v-.374a.046.046,0,0,1,.048-.047h0a.046.046,0,0,1,.048.047v.374A.046.046,0,0,1,651.648,944.469Z" transform="translate(-648.902 -944)" fill="#fff"/></g></g></g><g transform="translate(11.547 2.127)" opacity="0.5"><path d="M714.849,850l-17.012,15.829H694.5L711.512,850Z" transform="translate(-686.303 -850)" fill="#fff"/><path d="M578.63,865.829H573.9V850h21.742Z" transform="translate(-573.9 -850)" fill="#fff"/></g></g><g transform="translate(217.534 24.08)"><g transform="translate(13.233 99.385)"><g transform="translate(17.406)"><path d="M3960.677,2346.139h10.874a.18.18,0,0,0,.177-.177v-.285a.18.18,0,0,0-.177-.177h-10.874a.18.18,0,0,0-.177.177v.285A.18.18,0,0,0,3960.677,2346.139Z" transform="translate(-3960.5 -2341.973)" fill="#88bed7"/><path d="M3973.059,2293.6h-3.915s-.469,1.006-3.031,1.271c-2.861.292-2.657,2.257-2.657,2.257h10.718S3974.684,2295.639,3973.059,2293.6Z" transform="translate(-3963.252 -2293.6)" fill="#40465c"/></g><path d="M3717.874,2293.6h-3.921s-.469,1.074-3.031,1.332c-2.847.292-2.657,2.188-2.657,2.188h10.718C3718.982,2297.128,3719.5,2295.639,3717.874,2293.6Z" transform="translate(-3707.999 -2293.6)" fill="#40465c"/><path d="M3704.577,2346.139h11.01a.18.18,0,0,0,.177-.177v-.285a.18.18,0,0,0-.177-.177h-11.01a.18.18,0,0,0-.177.177v.285A.18.18,0,0,0,3704.577,2346.139Z" transform="translate(-3704.4 -2341.973)" fill="#88bed7"/></g><path d="M3756.53,1477.9c.095,3.154.5,27.553,3.31,34.4,2.854,6.946,1.217,21.069,1.217,21.069-3.908.619-5.491-.068-5.491-.068s-5.627-23.434-9.59-39.841c-.4,6.368-.815,15.843-.143,20.464,1.067,7.354-1.257,19.465-1.257,19.465a29.441,29.441,0,0,1-7.239,0s-.761-11.663-1.2-24.97c-.2-6.178-1.4-28.892-1.353-30.4Z" transform="translate(-3719.482 -1433.954)" fill="#88bed7"/><path d="M3728.059,1028.165c.876,0,9.216,1.658,9.2,5.288-.007,3.976-4.234,17.066-3.881,19.465s2.61,5.573,1.57,6.028c-2.807,1.23-12.172,2.209-21.531-.183,0,0,.979-2.2-.707-11.785-.918-5.226-1.135-15.217-.347-16.264s5.5-2.12,7.225-2.44A78.6,78.6,0,0,1,3728.059,1028.165Z" transform="translate(-3698.141 -1014.722)" fill="#88bed7"/><g transform="translate(13.077 13.416)"><path d="M3931.56,1028.7c-.211,1.2-2.508,28.484.462,42.063a22.316,22.316,0,0,0,9.76-1.2s-2.8-17.066-2.977-19.907,2-17.474.686-18.282A16.755,16.755,0,0,0,3931.56,1028.7Z" transform="translate(-3914.99 -1028.7)" fill="#fff"/><path d="M3710.154,1031.4s.659,25.915.809,41.744a15.262,15.262,0,0,1-8.863-.666s1.611-19.159,1.638-21.6-1.244-16.876.143-17.61A18.715,18.715,0,0,1,3710.154,1031.4Z" transform="translate(-3702.1 -1031.217)" fill="#fff"/></g><g transform="translate(0 15.096)"><g transform="translate(14.864 0.645)"><path d="M3857.88,1084.864c3.5-4.472-.564-21.225-6.477-21.959-.625-.075-1.937.394-2.025,4.323-.075,3.269,1.3,9.5,1.971,12.363-4.968.564-12.485,2.488-13.606,2.589-1.264.115-.5,4.241.789,4.4C3840.6,1086.828,3853.728,1087.922,3857.88,1084.864Z" transform="translate(-3829.709 -1062.898)" fill="#fff"/><path d="M3838.983,1201.228c-.122-.856,8.958-2.3,13.933-3.065-.707-3.045-1.386-8.163-1.386-8.163" transform="translate(-3831.466 -1181.362)" fill="none" stroke="#e4effd" stroke-miterlimit="10" stroke-width="5"/><line y1="7.327" x2="5.301" transform="translate(0.673 15.347)" fill="none" stroke="#000" stroke-miterlimit="10" stroke-width="5"/><path d="M3736.651,1343.3c-.618-.544-4.309-1.407-4.7-1.149a30.477,30.477,0,0,1-3.548.958s.088.754,1.339.591c1.454-.2,1.774.1,1.774.1s-.177.809.285,1.094-.122.741.523,1.312c.381.333.408.761.9.843a6.913,6.913,0,0,0,3.6-2.175C3737.209,1344.091,3737.019,1343.622,3736.651,1343.3Z" transform="translate(-3728.401 -1323.131)" fill="#edb98a"/></g><path d="M3530.6,1073.372c-1.026-.9-2.929-5.893.279-5.893a25.512,25.512,0,0,1,4.465.714c.7-4.2,2.127-10.779,4.425-12.716a13.086,13.086,0,0,1,3.711-2.019c3.949-1.325,2.882,25.956-3.255,24.889C3538.174,1077.98,3532.492,1075.044,3530.6,1073.372Z" transform="translate(-3527.775 -1053.412)" fill="#fff"/><path d="M3713.5,1205.219c.286-1.8-.279-4.744-.4-9.019" transform="translate(-3699.276 -1186.495)" fill="none" stroke="#e4effd" stroke-miterlimit="10" stroke-width="5"/><g transform="translate(0 12.09)"><path d="M3519.7,1248.047h11.493a.546.546,0,0,0,.469-.822l-9.08-15.435a1,1,0,0,0-.85-.489h-11.493a.546.546,0,0,0-.469.823l9.08,15.435A1,1,0,0,0,3519.7,1248.047Z" transform="translate(-3509.698 -1231.3)" fill="#fa4d56"/><g transform="translate(8.327 6.158)"><path d="M3632.241,1323.456l.754,1.312a.343.343,0,0,0,.265.17h1.046a.343.343,0,0,1,.265.17l.6,1.047a.342.342,0,0,0,.265.17h1.312c.095,0,.123-.075.068-.17l-.6-1.047c-.054-.1-.021-.17.068-.17h1.046c.1,0,.123-.075.068-.17l-.754-1.312a.342.342,0,0,0-.265-.17h-1.047a.342.342,0,0,1-.265-.17l-.6-1.047a.343.343,0,0,0-.265-.17h-1.312c-.1,0-.123.075-.068.17l.6,1.047c.054.1.02.17-.068.17h-1.047C3632.221,1323.286,3632.187,1323.368,3632.241,1323.456Z" transform="translate(-3632.215 -1321.9)" fill="#fff"/></g></g><g transform="translate(0.124 14.223)"><g transform="translate(0 0.001)"><path d="M3515.185,1266.43c-.1.442-.143.639-.5.768h0a3.768,3.768,0,0,1-1.971.374c-.686.02-.544-1.21-.544-1.21a1.13,1.13,0,0,1-.17-1.128,1.1,1.1,0,0,1-.224-1.142,1.225,1.225,0,0,1-.224-.992c.082-.306,1-.34,1.665-.353.455-.027.829-.041,1.019-.048s.456.415.422,1.006a.924.924,0,0,1,.224.523,8.554,8.554,0,0,1,.19,1.808C3515.035,1266.22,3515.2,1266.349,3515.185,1266.43Z" transform="translate(-3511.515 -1262.699)" fill="#edb98a"/></g><g transform="translate(0.346)"><path d="M3516.688,1262.947c.449-.054,1.923-.238,2.277-.258.5-.034.727.992.088,1.067a11.938,11.938,0,0,1-2.453.333" transform="translate(-3516.6 -1262.688)" fill="none" stroke="#edb98a" stroke-linecap="round" stroke-miterlimit="10" stroke-width="2"/><path d="M3520.3,1279.815a11.58,11.58,0,0,0,2.563-.347c.313-.027.394-1.176-.361-1.108" transform="translate(-3520.049 -1277.292)" fill="none" stroke="#edb98a" stroke-linecap="round" stroke-miterlimit="10" stroke-width="2"/><path d="M3522.5,1296.106a11.086,11.086,0,0,0,2.665-.36c.292-.047.339-1.216-.258-1.121" transform="translate(-3522.099 -1292.449)" fill="none" stroke="#edb98a" stroke-linecap="round" stroke-miterlimit="10" stroke-width="2"/><path d="M3530.319,1312.141s.66-.258.775.17c.2.754-.68,1.013-2.495,1.189" transform="translate(-3527.785 -1308.708)" fill="none" stroke="#edb98a" stroke-linecap="round" stroke-miterlimit="10" stroke-width="2"/></g></g></g><g transform="translate(14.891 24.073)"><path d="M3734.081,1206.3h-5.009a.273.273,0,0,1-.272-.272v-2.759a.273.273,0,0,1,.272-.272h5.009a.272.272,0,0,1,.272.272v2.753A.274.274,0,0,1,3734.081,1206.3Z" transform="translate(-3728.8 -1201.811)" fill="#e4effd"/><rect width="0.666" height="1.529" transform="translate(2.447)" fill="#85c3d3"/><g transform="translate(0.673 1.835)"><rect width="1.203" height="1.448" fill="#fff"/><rect width="2.583" height="0.333" transform="translate(1.59)" fill="#fff"/><rect width="2.583" height="0.333" transform="translate(1.59 0.551)" fill="#fff"/><rect width="2.583" height="0.333" transform="translate(1.59 1.108)" fill="#fff"/><rect width="4.166" height="0.333" transform="translate(0 1.672)" fill="#fff"/></g></g><g transform="translate(18.215 11.751)"><g transform="translate(7.803 6.325)"><path d="M3893.333,1104.878a1.217,1.217,0,0,1-.8-1.393l.822-3.765a3.23,3.23,0,0,1,4.261-2.27h0a3.227,3.227,0,0,1,1.9,4.438l-1.713,3.453a1.206,1.206,0,0,1-1.5.584" transform="translate(-3892.504 -1097.256)" fill="none" stroke="#6562ce" stroke-miterlimit="10" stroke-width="5"/><path d="M3903.4,1206.528l-.245-.088a.306.306,0,0,1-.184-.387h0a.306.306,0,0,1,.387-.183l.245.088a.306.306,0,0,1,.184.387h0A.3.3,0,0,1,3903.4,1206.528Z" transform="translate(-3902.242 -1198.472)" fill="none" stroke="#6562ce" stroke-miterlimit="10" stroke-width="5"/><path d="M3938.2,1218.728l-.245-.088a.306.306,0,0,1-.184-.388h0a.306.306,0,0,1,.388-.183l.244.088a.305.305,0,0,1,.183.387h0A.3.3,0,0,1,3938.2,1218.728Z" transform="translate(-3934.677 -1209.842)" fill="none" stroke="#6562ce" stroke-miterlimit="10" stroke-width="5"/><path d="M3903.6,1120.146a3.505,3.505,0,0,1,3.847-1.271,3.557,3.557,0,0,1,2.2,3.4" transform="translate(-3902.846 -1117.227)" fill="none" stroke="#6562ce" stroke-miterlimit="10" stroke-width="5"/></g><path d="M3788.711,1017.762s-1.509-6.973,3.16-7.762" transform="translate(-3787.746 -1009.606)" fill="none" stroke="#6562ce" stroke-linecap="round" stroke-miterlimit="10" stroke-width="5"/><g transform="translate(0 8.101)"><ellipse cx="1.468" cy="1.468" rx="1.468" ry="1.468" transform="translate(0.014)" fill="#fff"/><ellipse cx="1.468" cy="1.468" rx="1.468" ry="1.468" transform="translate(0 0.007)" fill="none" stroke="#efaf00" stroke-miterlimit="10" stroke-width="4"/><ellipse cx="0.979" cy="0.979" rx="0.979" ry="0.979" transform="translate(0.483 0.489)" fill="#efaf00"/></g><path d="M3937.383,1010.684s2.447-6.008-2.283-6.484" transform="translate(-3924.403 -1004.2)" fill="none" stroke="#6562ce" stroke-linecap="round" stroke-miterlimit="10" stroke-width="5"/></g><g transform="translate(20.795)"><g transform="translate(0.329 7.721)"><path d="M3827.534,944.9a7.664,7.664,0,0,0,1.482,5.7,11.644,11.644,0,0,1-8.516.19s2.889-1,1.658-5.763Z" transform="translate(-3820.5 -944.9)" fill="#edb98a"/><path d="M3844.009,944.9v.462a6,6,0,0,1-1.319,3.208c-.863.822-3.527,1.658-4.391,1.244a7.027,7.027,0,0,0,.449-4.792Z" transform="translate(-3837.09 -944.9)" fill="#d97802"/></g><path d="M3822.988,839.452l-.007-.238-.034-1.074s-1.135.041-.727-1.658c.441-1.862-.3-2.732-2.216-1.991-1.387.53-2.712.958-3.63.211a2.047,2.047,0,0,1-.435-.489c-.517-.782-.286-.856.544-1.366,1.04-.646,2.2-1.957,4.778-1.414a2.514,2.514,0,0,1,2.168,2.168,1.245,1.245,0,0,1,1.515,1.013C3825.292,836.237,3822.988,839.452,3822.988,839.452Z" transform="translate(-3815.666 -831.303)" fill="#40465c"/><path d="M3928.9,860.946a1.147,1.147,0,0,1,1.332-.217" transform="translate(-3921.204 -858.594)" fill="none" stroke="#40465c" stroke-miterlimit="10" stroke-width="4"/><path d="M3829.108,879.582h0c-.285.469-1.135,1.808-1.563,1.971-1.278.483-3.317.9-4,.551-.462-.238-.489-.251-1.033-2.623a14.741,14.741,0,0,1,.075-4.785c.924.748,2.243.326,3.629-.211,1.917-.741,2.658.129,2.216,1.991-.346,1.468.449,1.638.673,1.658h0c.041-.048.557-.612,1.04-.19C3830.495,878.237,3829.34,879.365,3829.108,879.582Z" transform="translate(-3821.895 -871.305)" fill="#edb98a"/></g></g><g transform="translate(122.629 27.95)"><g transform="translate(33.67)"><path d="M2616.285,889.573s-3.378-.618-4.248,2.127,1.577,4.051,1.4,5.879-1.638,1.149-1.638,1.149.639,2.236,4.608,1.053,3.833,9.4,13.824,6.681c0,0,1.4-4.737-1.645-6.47-2.664-1.516-5.614-.5-5.5-1.6s3.922-5.668-.149-9.012C2619.69,886.718,2616.285,889.573,2616.285,889.573Z" transform="translate(-2611.589 -888.244)" fill="#fa4d56"/><path d="M2609.61,929.7c-1.359,2.542.557,4.275.421,6.1-.116,1.557-1.332.856-1.332.856" transform="translate(-2608.7 -926.883)" fill="none" stroke="#fa4d56" stroke-miterlimit="10" stroke-width="4"/><path d="M2784.125,1045.18s1.4-4.737-1.645-6.47c-2.664-1.516-6.729-.109-6.613-1.21" transform="translate(-2764.503 -1027.356)" fill="#fa4d56" stroke="#fa4d56" stroke-miterlimit="10" stroke-width="4"/></g><g transform="translate(18.962 42.672)"><g transform="translate(0 0.306)"><path d="M2413.136,2216.763c-.544,1.06-2.555,3.962-2.569,5.362-.014,1.135.945,2.018.455,2.8-.646,1.033-8.631.326-8.842.279s3.67-1.924,4.717-3.84a17.118,17.118,0,0,0,1.733-4.764Z" transform="translate(-2401.5 -2169.296)" fill="#e18c32"/><g transform="translate(0 52.992)"><path d="M2392.674,2345.548h9.277a.373.373,0,0,0,.374-.374h0a.373.373,0,0,0-.374-.374h-9.277a.373.373,0,0,0-.374.374h0A.377.377,0,0,0,2392.674,2345.548Z" transform="translate(-2392.3 -2341.776)" fill="#88bed7"/><path d="M2403.035,2310.787,2401,2308.3s-3.3,1.189-3.3,2.481Z" transform="translate(-2397.333 -2307.756)" fill="#cbe1fd"/><path d="M2481.9,2303.331s.727-2.793,2.977-3.031c0,0,1.373,1.577.462,3.031Z" transform="translate(-2475.811 -2300.3)" fill="#cbe1fd"/></g><path d="M2495.4,2217.112a14.881,14.881,0,0,0,3.677,1.189c.4-.673.768-1.264.952-1.638l-4.5-.163C2495.529,2216.507,2495.5,2216.731,2495.4,2217.112Z" transform="translate(-2488.393 -2169.203)" fill="#d97802"/><path d="M2494.152,1520.6c-.55,4.248-1.733,9.889-4.132,28.593-1.115,8.713-3.12,18.527-3.12,18.527s3.956,1.183,5.886.53c0,0,1.482-.258,1.271-1.529-.163-1.006,1.563-1.59,1.434-3.181-.143-1.855,1.264-4.275,2.426-8.332,1.767-6.158,4.431-13.45,6.4-19.526.972-3.018,3.922-13.525.986-14.347Z" transform="translate(-2480.471 -1520.6)" fill="#cbe1fd"/></g><g transform="translate(18.881)"><path d="M2764.973,2219c-.238.891-1.1,3.942-.789,5.043s1.176,1.9.938,3.017c-.252,1.19-7.232.435-7.442.388s3.7-2.223,3.751-3.84a31.64,31.64,0,0,0-.469-4.608Z" transform="translate(-2751.72 -2171.227)" fill="#e18c32"/><g transform="translate(4.472 53.434)"><path d="M2736.274,2345.548h8.618a.373.373,0,0,0,.374-.374h0a.373.373,0,0,0-.374-.374h-8.618a.373.373,0,0,0-.374.374h0A.369.369,0,0,0,2736.274,2345.548Z" transform="translate(-2735.9 -2341.911)" fill="#88bed7"/><path d="M2747.758,2323.465a4.732,4.732,0,0,0-2.182-1.427,3.516,3.516,0,0,0-2.834.218,2.955,2.955,0,0,0-1.142,1.169Z" transform="translate(-2741.213 -2320.521)" fill="#cbe1fd"/><path d="M2832.693,2305.222s-.074-2.59,1.632-2.922c0,0,1.645,1.468.734,2.922Z" transform="translate(-2826.115 -2302.3)" fill="#cbe1fd"/></g><path d="M2810.017,2219H2806s.1.571.2,1.353a8.624,8.624,0,0,0,3.6-.591C2809.894,2219.448,2809.969,2219.177,2810.017,2219Z" transform="translate(-2796.764 -2171.227)" fill="#d97802"/><path d="M2670.1,1516.67c.924,2.155,2.2,10.127,2.324,10.976,1.169,7.435,3.228,17.406,3.609,19.3.782,3.908,1.441,9.991,2.161,13.7.374,1.93.564,3.221.564,3.221a13.163,13.163,0,0,0,4.594,0,1.329,1.329,0,0,0,1.386-1.91c-.36-1.2.761-1.76.721-3.439a29.528,29.528,0,0,1-.218-3.86c.1-4.6-1.142-10.963-1.305-12.669-.143-1.475,1.38-8.536,1.869-17.725.251-4.757-2.155-7.415-2.134-8.169A42.735,42.735,0,0,1,2670.1,1516.67Z" transform="translate(-2670.1 -1516.1)" fill="#cbe1fd"/></g></g><g transform="translate(0 7.657)"><g transform="translate(12.023 17.392)"><path d="M2310.565,1259.757c-.408.931-3.446,6.858-6.042,6.858-3.378,0-13.158-5.859-13.967-6.205-.965-.421.353-1.937.353-1.937s12.193,2.637,12.832,2.807l1.978-4.479Z" transform="translate(-2290.203 -1256.8)" fill="#edb98a"/><path d="M2519.059,1259.757c-.109.238-.394.734-.809,1.624l-4.35-3.867.313-.714Z" transform="translate(-2498.697 -1256.8)" fill="#d97802"/></g><path d="M2247.214,1235.737c.088.286.469.693.156.734-.163.02-1.359,0-1.441.455a.944.944,0,0,0,.122.619.643.643,0,0,0,.041.7.667.667,0,0,0,.014.693s-.184.666.1.768a5.808,5.808,0,0,0,2.861.02c.435-.122.788-.544.788-1.488a3.073,3.073,0,0,0-.6-1.624c-.143-.15-.931-.829-1.1-.992a2.888,2.888,0,0,1-.612-1.121A1.142,1.142,0,0,0,2247.214,1235.737Z" transform="translate(-2236.904 -1218.623)" fill="#e18c32"/><line y2="86.424" transform="translate(10.093)" fill="none" stroke="#6562ce" stroke-miterlimit="10" stroke-width="6"/><path d="M2180.571,2274.745v-.816c0-.843-.972-1.529-2.168-1.529h-8.434c-1.2,0-2.168.687-2.168,1.529v.816" transform="translate(-2164.096 -2185.983)" fill="none" stroke="#6562ce" stroke-miterlimit="10" stroke-width="6"/><ellipse cx="1.658" cy="1.658" rx="1.658" ry="1.658" transform="translate(2.093 88.769)" fill="#fff" stroke="#fa4d56" stroke-miterlimit="10" stroke-width="5"/><ellipse cx="1.658" cy="1.658" rx="1.658" ry="1.658" transform="translate(14.789 88.769)" fill="#fff" stroke="#fa4d56" stroke-miterlimit="10" stroke-width="5"/><path d="M2163.084,1035.822a1.09,1.09,0,0,1-1.087,1.088h0a1.091,1.091,0,0,1-1.087-1.088V1035h-11.235v.822a1.091,1.091,0,0,1-1.087,1.088h0a1.091,1.091,0,0,1-1.088-1.088" transform="translate(-2145.176 -1032.682)" fill="none" stroke="#6562ce" stroke-miterlimit="10" stroke-width="6"/><path d="M2155.18,1056h0a.681.681,0,0,0-.68.68v.551h1.366v-.551A.683.683,0,0,0,2155.18,1056Z" transform="translate(-2151.7 -1052.255)" fill="none" stroke="#efaf00" stroke-miterlimit="10" stroke-width="5"/><path d="M2119.532,1083.887h-5.3a.928.928,0,0,1-.931-.931v-7.925a.928.928,0,0,1,.931-.931h5.3a.928.928,0,0,1,.931.931v7.925A.933.933,0,0,1,2119.532,1083.887Z" transform="translate(-2113.3 -1069.125)" fill="none" stroke="#fa4d56" stroke-miterlimit="10" stroke-width="5"/><path d="M2128.327,1160.4v2.372a.9.9,0,0,1-.9.9H2123.3a.9.9,0,0,1-.9-.9V1160.4Z" transform="translate(-2121.781 -1149.56)" fill="#cbe1fd"/><path d="M2158.7,1218.843h-1.04a.258.258,0,0,1-.259-.258V1218h1.563v.584A.269.269,0,0,1,2158.7,1218.843Z" transform="translate(-2154.403 -1203.245)" fill="#fff" stroke="#fa4d56" stroke-miterlimit="10" stroke-width="5"/><g transform="translate(9.134 18.194)"><g transform="translate(0.104 0)"><path d="M2251.006,1270.925c-.047.476-.163.557-1.264.51,0,0-.415.007-.476-1.06-.1-1.577.054-1.774.054-1.774.612,0,1.2.068,1.414.082C2251.182,1268.709,2251.033,1270.619,2251.006,1270.925Z" transform="translate(-2249.234 -1268.6)" fill="#edb98a"/></g><path d="M2247.89,1268.6c0,.2,1.2.068,1.414.082.306.02.353.652-.034.645a7.779,7.779,0,0,1-1.57,0" transform="translate(-2247.7 -1268.6)" fill="none" stroke="#edb98a" stroke-miterlimit="10" stroke-width="2"/><path d="M2248.6,1280.093a7.659,7.659,0,0,0,1.631,0c.19.007.333-.673-.129-.693" transform="translate(-2248.539 -1278.666)" fill="none" stroke="#edb98a" stroke-miterlimit="10" stroke-width="2"/><path d="M2249.6,1290.291a6.891,6.891,0,0,0,1.631,0c.177-.007.3-.707-.061-.693" transform="translate(-2249.471 -1288.17)" fill="none" stroke="#edb98a" stroke-miterlimit="10" stroke-width="2"/><path d="M2257.515,1300.136s.422-.1.449.163c.054.469-.163.557-1.264.51" transform="translate(-2256.088 -1297.974)" fill="none" stroke="#edb98a" stroke-miterlimit="10" stroke-width="2"/></g></g><g transform="translate(26.275 13.352)"><path d="M2518.978,1084.7c.483.347,4.418,2.025,5.723,3.215,1.686,1.543,4.472,8.163,4.472,8.163s-4,3.126-6.77,3.432l-1.223-1.6s-1.2,3.949-.979,5.995c.116,1.108,4.669,9.9,4.839,10.12s-8.163,3.867-18.847.7c0,0,2.107-10.446.347-11.833a4.936,4.936,0,0,1-1.441-3.935s-4.676-2.732-5.2-3.731c0,0,3.521-5.872,5.213-6.953a50.389,50.389,0,0,1,6.98-2.773Z" transform="translate(-2499.9 -1084.7)" fill="#e4effd"/><path d="M2661.689,1090.131s-8.387,9.073-8.917,9.073c-.455,0-2.372-8.876-2.372-8.876l1.638-.516s1.115,5.661,1.318,5.689,6.45-6.3,6.45-6.3Z" transform="translate(-2640.171 -1088.894)" fill="#cbe1fd"/></g><g transform="translate(33.291 37.654)"><path d="M2665.57,1442.274h0a.678.678,0,0,0-.781.564l-.089.544,1.346.218.089-.544A.675.675,0,0,0,2665.57,1442.274Z" transform="translate(-2660.515 -1442.265)" fill="none" stroke="#fa4d56" stroke-miterlimit="10" stroke-width="5"/><path d="M2609.136,1464.635l-5.233-.843a.926.926,0,0,1-.768-1.067l1.264-7.823a.926.926,0,0,1,1.067-.768l5.233.843a.926.926,0,0,1,.768,1.067l-1.264,7.823A.931.931,0,0,1,2609.136,1464.635Z" transform="translate(-2603.122 -1453.317)" fill="#fff"/><path d="M2609.136,1464.635l-5.233-.843a.926.926,0,0,1-.768-1.067l1.264-7.823a.926.926,0,0,1,1.067-.768l5.233.843a.926.926,0,0,1,.768,1.067l-1.264,7.823A.931.931,0,0,1,2609.136,1464.635Z" transform="translate(-2603.122 -1453.317)" fill="none" stroke="#fa4d56" stroke-miterlimit="10" stroke-width="5"/><path d="M2634.511,1510.061l-3.446-.557a.381.381,0,0,1-.313-.428l.259-1.611a.38.38,0,0,1,.428-.313l3.446.557a.381.381,0,0,1,.313.428l-.259,1.611A.367.367,0,0,1,2634.511,1510.061Z" transform="translate(-2628.872 -1502.739)" fill="#efaf00"/><path d="M2644.406,1602.24l-1.026-.163a.262.262,0,0,1-.217-.3l.095-.578,1.543.251-.1.571A.261.261,0,0,1,2644.406,1602.24Z" transform="translate(-2640.438 -1590.398)" fill="#fff" stroke="#fa4d56" stroke-miterlimit="10" stroke-width="5"/></g><g transform="translate(35.702 25.654)"><path d="M2658.269,1271.511c-3.983,3.385-12.03,6.328-13.538,6.158-.048.088-.761,1.454-1.468,1.454-.734,0-1.42-.394-1.808.014s-.789,1.074-1.081,1.135a1.594,1.594,0,0,1-1.053-.136s.251-.618.516-1.21c-.238.217-.557.7-.734.89a.326.326,0,0,1-.5.027s.516-.986.714-1.244a3.527,3.527,0,0,1,1.121-.782,18.719,18.719,0,0,1,3.684-1.59c1.9-1.4,6.736-4.914,9.08-6.192l-.843-1.95a15.671,15.671,0,0,0,4.805-2.385S2659.064,1270.838,2658.269,1271.511Z" transform="translate(-2638.6 -1265.7)" fill="#edb98a"/><path d="M2845.8,1265.7a16.163,16.163,0,0,1-4.8,2.385l.306.7a10.855,10.855,0,0,1,5.274-.727C2846.573,1268.058,2845.893,1265.836,2845.8,1265.7Z" transform="translate(-2827.244 -1265.7)" fill="#d97802"/><path d="M2655.5,1445.565a9.17,9.17,0,0,1,.918-1.706c.415-.286.965-.659.965-.659" transform="translate(-2654.351 -1431.136)" fill="none" stroke="#edb98a" stroke-linecap="round" stroke-miterlimit="10" stroke-width="3"/><path d="M2661.6,1449.641a8.009,8.009,0,0,1,.89-1.482c.415-.285.965-.659.965-.659" transform="translate(-2660.037 -1435.144)" fill="none" stroke="#edb98a" stroke-linecap="round" stroke-miterlimit="10" stroke-width="3"/></g><g transform="translate(35.806 2.973)"><g transform="translate(2.342 4.956)"><path d="M2679.365,1004.9c.047.917-.306,4.316,3.1,5.75l-6.545,6.287-1.319-5.689s.843-1.353.428-5.954Z" transform="translate(-2674.6 -1004.9)" fill="#edb98a"/></g><path d="M2683.259,1009.9s-.741,4.921-4.4,5.172h-.055a16.579,16.579,0,0,0,.143-5.125Z" transform="translate(-2676.172 -1004.604)" fill="#d97802"/><path d="M2642.817,940.546c2.155-.2,4.4-3.269,4.4-3.269.618-.428.687-1.38.19-1.556-.578-.2-1.04.809-1.257.822-.381.265-1.332-.2-1.318-2.236a2.248,2.248,0,0,0-.748-1.889h0a2.462,2.462,0,0,0-.38-.231h0a1.967,1.967,0,0,0-1.053-.2c-2.678.238-2.562,2.555-2.495,3.459C2640.241,936.754,2641.077,940.7,2642.817,940.546Z" transform="translate(-2640.135 -931.981)" fill="#edb98a"/></g></g><g transform="translate(58.715 51.375)"><g transform="translate(0.075 11.587)"><g transform="translate(2.753 14.987)"><path d="M1261.324,1623.9h-37.048a7.476,7.476,0,0,0-7.476,7.476v17.263h52v-17.263A7.472,7.472,0,0,0,1261.324,1623.9Z" transform="translate(-1216.644 -1623.9)" fill="none" stroke="#6562ce" stroke-miterlimit="10" stroke-width="6"/><line x2="52.156" transform="translate(0 10.67)" fill="none" stroke="#6562ce" stroke-miterlimit="10" stroke-width="6"/></g><path d="M1258.694,1451.662H1250.2l-19.8-38.685.374-.19a7.142,7.142,0,0,1,3.29-.789h.02a7.124,7.124,0,0,1,6.294,3.881Z" transform="translate(-1226.567 -1411.413)" fill="#fff" stroke="#88bed7" stroke-miterlimit="10" stroke-width="5"/><path d="M1365.143,1443.057H1319.81l-18.316-35.777a7.125,7.125,0,0,0-6.294-3.881h45.333a7.125,7.125,0,0,1,6.293,3.881Z" transform="translate(-1286.963 -1403.399)" fill="#e4effd"/><path d="M1355.6,1442.908v.143H1260.8l-.034-.075L1241,1404.365l.374-.19a7.053,7.053,0,0,1,3.29-.781h.021a7.124,7.124,0,0,1,6.293,3.881l14.68,28.668a7.405,7.405,0,0,1,2.528-.442h80A7.4,7.4,0,0,1,1355.6,1442.908Z" transform="translate(-1236.446 -1403.393)" fill="#cbe1fd"/><g transform="translate(0 46.563)"><g transform="translate(97.495)"><path d="M2644.9,2088.5v8.72a1.836,1.836,0,0,0,1.835,1.835h0a4.159,4.159,0,0,1,4.159,4.159v.4" transform="translate(-2642.426 -2088.5)" fill="none" stroke="#6562ce" stroke-miterlimit="10" stroke-width="6"/><ellipse cx="3.323" cy="3.323" rx="3.323" ry="3.323" transform="translate(0 12.179)" fill="#e4effd"/><ellipse cx="3.323" cy="3.323" rx="3.323" ry="3.323" transform="translate(0.714 11.52)" fill="none" stroke="#6562ce" stroke-miterlimit="10" stroke-width="6"/><g transform="translate(55.106)"><path d="M3455.8,2088.5v8.72a1.836,1.836,0,0,0,1.835,1.835h0a4.159,4.159,0,0,1,4.159,4.159v.4" transform="translate(-3453.32 -2088.5)" fill="none" stroke="#6562ce" stroke-miterlimit="10" stroke-width="6"/><ellipse cx="3.323" cy="3.323" rx="3.323" ry="3.323" transform="translate(0 12.179)" fill="#e4effd"/><ellipse cx="3.323" cy="3.323" rx="3.323" ry="3.323" transform="translate(0.72 11.52)" fill="none" stroke="#6562ce" stroke-miterlimit="10" stroke-width="6"/></g><line x2="55.113" transform="translate(2.474 5.342)" fill="none" stroke="#6562ce" stroke-miterlimit="10" stroke-width="6"/></g><path d="M1179.995,2088.5v8.72a1.836,1.836,0,0,1-1.835,1.835h0a4.159,4.159,0,0,0-4.16,4.159v.4" transform="translate(-1174 -2088.5)" fill="none" stroke="#6562ce" stroke-miterlimit="10" stroke-width="6"/><ellipse cx="3.323" cy="3.323" rx="3.323" ry="3.323" transform="translate(0.387 12.179)" fill="#e4effd"/><ellipse cx="3.323" cy="3.323" rx="3.323" ry="3.323" transform="translate(1.108 11.52)" fill="none" stroke="#6562ce" stroke-miterlimit="10" stroke-width="6"/><g transform="translate(46.148)"><path d="M1858.995,2088.5v8.72a1.836,1.836,0,0,1-1.835,1.835h0a4.159,4.159,0,0,0-4.159,4.159v.4" transform="translate(-1853 -2088.5)" fill="none" stroke="#6562ce" stroke-miterlimit="10" stroke-width="6"/><ellipse cx="3.323" cy="3.323" rx="3.323" ry="3.323" transform="translate(0.387 12.179)" fill="#e4effd"/><ellipse cx="3.323" cy="3.323" rx="3.323" ry="3.323" transform="translate(1.108 11.52)" fill="none" stroke="#6562ce" stroke-miterlimit="10" stroke-width="6"/></g><line x1="46.148" transform="translate(5.994 5.342)" fill="none" stroke="#6562ce" stroke-miterlimit="10" stroke-width="6"/></g></g><g transform="translate(27.872)"><g transform="translate(0 17.712)"><path d="M1594.69,1493.962c-2.44.9-6.674,2.657-8.305,4.866s-3.385,9.44-3.385,9.44,2.732,3.126,11.622,2.739a18.41,18.41,0,0,0,15.992,8.468s4.329-8.679,13.11-10.657a8.3,8.3,0,0,1-5.553-.313,5.151,5.151,0,0,1-2.868-3.3s2.562-1.93,3.194-3.969c0,0-5.077-6.253-7.49-6.905a49.63,49.63,0,0,0-7.809-.836Z" transform="translate(-1583 -1493.5)" fill="#fff"/><g transform="translate(0.415 0.421)"><g transform="translate(6.966 0.911)"><ellipse cx="0.421" cy="0.421" rx="0.421" ry="0.421" transform="translate(5.417 0.775)" fill="#e4effd"/><ellipse cx="0.421" cy="0.421" rx="0.421" ry="0.421" transform="translate(7.286 0.68)" fill="#e4effd"/><ellipse cx="0.421" cy="0.421" rx="0.421" ry="0.421" transform="translate(9.148 0.584)" fill="#e4effd"/><ellipse cx="0.421" cy="0.421" rx="0.421" ry="0.421" transform="translate(11.017 0.489)" fill="#e4effd"/><ellipse cx="0.421" cy="0.421" rx="0.421" ry="0.421" transform="translate(12.879 0.387)" fill="#e4effd"/><ellipse cx="0.421" cy="0.421" rx="0.421" ry="0.421" transform="translate(14.748 0.292)" fill="#e4effd"/><ellipse cx="0.421" cy="0.421" rx="0.421" ry="0.421" transform="translate(16.611 0.197)" fill="#e4effd"/><ellipse cx="0.421" cy="0.421" rx="0.421" ry="0.421" transform="translate(18.48 0.102)" fill="#e4effd"/><ellipse cx="0.421" cy="0.421" rx="0.421" ry="0.421" transform="translate(20.342)" fill="#e4effd"/><ellipse cx="0.421" cy="0.421" rx="0.421" ry="0.421" transform="translate(3.555 0.877)" fill="#e4effd"/><ellipse cx="0.421" cy="0.421" rx="0.421" ry="0.421" transform="translate(1.686 0.972)" fill="#e4effd"/><ellipse cx="0.421" cy="0.421" rx="0.421" ry="0.421" transform="translate(0 1.128)" fill="#e4effd"/></g><g transform="translate(9.542)"><ellipse cx="0.421" cy="0.421" rx="0.421" ry="0.421" transform="translate(3.731 0.585)" fill="#e4effd"/><ellipse cx="0.421" cy="0.421" rx="0.421" ry="0.421" transform="translate(5.593 0.483)" fill="#e4effd"/><ellipse cx="0.421" cy="0.421" rx="0.421" ry="0.421" transform="translate(7.463 0.387)" fill="#e4effd"/><ellipse cx="0.421" cy="0.421" rx="0.421" ry="0.421" transform="translate(9.325 0.292)" fill="#e4effd"/><ellipse cx="0.421" cy="0.421" rx="0.421" ry="0.421" transform="translate(11.194 0.197)" fill="#e4effd"/><ellipse cx="0.421" cy="0.421" rx="0.421" ry="0.421" transform="translate(13.056 0.095)" fill="#e4effd"/><ellipse cx="0.421" cy="0.421" rx="0.421" ry="0.421" transform="translate(14.925)" fill="#e4effd"/><path d="M1977.465,1502.156a.428.428,0,0,1-.312.421.422.422,0,0,1-.51-.306.459.459,0,0,1,.02-.272C1976.949,1502.048,1977.214,1502.1,1977.465,1502.156Z" transform="translate(-1959.835 -1501.844)" fill="#e4effd"/><ellipse cx="0.421" cy="0.421" rx="0.421" ry="0.421" transform="translate(1.862 0.68)" fill="#e4effd"/><ellipse cx="0.421" cy="0.421" rx="0.421" ry="0.421" transform="translate(0 0.775)" fill="#e4effd"/></g><g transform="translate(3.589 3.337)"><ellipse cx="0.421" cy="0.421" rx="0.421" ry="0.421" transform="translate(9.196 0.985)" fill="#e4effd"/><ellipse cx="0.421" cy="0.421" rx="0.421" ry="0.421" transform="translate(11.065 0.884)" fill="#e4effd"/><ellipse cx="0.421" cy="0.421" rx="0.421" ry="0.421" transform="translate(12.927 0.788)" fill="#e4effd"/><ellipse cx="0.421" cy="0.421" rx="0.421" ry="0.421" transform="translate(14.796 0.693)" fill="#e4effd"/><ellipse cx="0.421" cy="0.421" rx="0.421" ry="0.421" transform="translate(16.658 0.598)" fill="#e4effd"/><ellipse cx="0.421" cy="0.421" rx="0.421" ry="0.421" transform="translate(18.527 0.496)" fill="#e4effd"/><ellipse cx="0.421" cy="0.421" rx="0.421" ry="0.421" transform="translate(20.389 0.401)" fill="#e4effd"/><ellipse cx="0.421" cy="0.421" rx="0.421" ry="0.421" transform="translate(22.258 0.306)" fill="#e4effd"/><ellipse cx="0.421" cy="0.421" rx="0.421" ry="0.421" transform="translate(24.121 0.211)" fill="#e4effd"/><ellipse cx="0.421" cy="0.421" rx="0.421" ry="0.421" transform="translate(7.333 1.081)" fill="#e4effd"/><ellipse cx="0.421" cy="0.421" rx="0.421" ry="0.421" transform="translate(5.464 1.176)" fill="#e4effd"/><ellipse cx="0.421" cy="0.421" rx="0.421" ry="0.421" transform="translate(3.779 1.339)" fill="#e4effd"/><path d="M2049.9,1549.378a.425.425,0,0,1-.265.2.422.422,0,0,1-.3-.782C2049.526,1548.99,2049.716,1549.181,2049.9,1549.378Z" transform="translate(-2021.436 -1548.8)" fill="#e4effd"/><ellipse cx="0.421" cy="0.421" rx="0.421" ry="0.421" transform="translate(25.806 0.048)" fill="#e4effd"/><ellipse cx="0.421" cy="0.421" rx="0.421" ry="0.421" transform="translate(0 1.495)" fill="#e4effd"/><ellipse cx="0.421" cy="0.421" rx="0.421" ry="0.421" transform="translate(1.869 1.4)" fill="#e4effd"/></g><g transform="translate(4.323 2.243)"><ellipse cx="0.421" cy="0.421" rx="0.421" ry="0.421" transform="translate(9.352 0.775)" fill="#e4effd"/><ellipse cx="0.421" cy="0.421" rx="0.421" ry="0.421" transform="translate(11.214 0.68)" fill="#e4effd"/><ellipse cx="0.421" cy="0.421" rx="0.421" ry="0.421" transform="translate(13.083 0.578)" fill="#e4effd"/><ellipse cx="0.421" cy="0.421" rx="0.421" ry="0.421" transform="translate(14.945 0.483)" fill="#e4effd"/><ellipse cx="0.421" cy="0.421" rx="0.421" ry="0.421" transform="translate(16.814 0.387)" fill="#e4effd"/><ellipse cx="0.421" cy="0.421" rx="0.421" ry="0.421" transform="translate(18.677 0.292)" fill="#e4effd"/><ellipse cx="0.421" cy="0.421" rx="0.421" ry="0.421" transform="translate(20.546 0.19)" fill="#e4effd"/><ellipse cx="0.421" cy="0.421" rx="0.421" ry="0.421" transform="translate(22.408 0.095)" fill="#e4effd"/><ellipse cx="0.421" cy="0.421" rx="0.421" ry="0.421" transform="translate(24.277)" fill="#e4effd"/><ellipse cx="0.421" cy="0.421" rx="0.421" ry="0.421" transform="translate(7.483 0.87)" fill="#e4effd"/><ellipse cx="0.421" cy="0.421" rx="0.421" ry="0.421" transform="translate(5.621 0.965)" fill="#e4effd"/><ellipse cx="0.421" cy="0.421" rx="0.421" ry="0.421" transform="translate(0 1.271)" fill="#e4effd"/><ellipse cx="0.421" cy="0.421" rx="0.421" ry="0.421" transform="translate(1.862 1.176)" fill="#e4effd"/><ellipse cx="0.421" cy="0.421" rx="0.421" ry="0.421" transform="translate(3.731 1.074)" fill="#e4effd"/></g><g transform="translate(2.053 5.811)"><ellipse cx="0.421" cy="0.421" rx="0.421" ry="0.421" transform="translate(14.789 0.931)" fill="#e4effd"/><ellipse cx="0.421" cy="0.421" rx="0.421" ry="0.421" transform="translate(16.658 0.836)" fill="#e4effd"/><ellipse cx="0.421" cy="0.421" rx="0.421" ry="0.421" transform="translate(18.52 0.734)" fill="#e4effd"/><ellipse cx="0.421" cy="0.421" rx="0.421" ry="0.421" transform="translate(20.389 0.639)" fill="#e4effd"/><ellipse cx="0.421" cy="0.421" rx="0.421" ry="0.421" transform="translate(22.252 0.544)" fill="#e4effd"/><ellipse cx="0.421" cy="0.421" rx="0.421" ry="0.421" transform="translate(24.121 0.449)" fill="#e4effd"/><ellipse cx="0.421" cy="0.421" rx="0.421" ry="0.421" transform="translate(25.983 0.347)" fill="#e4effd"/><ellipse cx="0.421" cy="0.421" rx="0.421" ry="0.421" transform="translate(27.852 0.251)" fill="#e4effd"/><ellipse cx="0.421" cy="0.421" rx="0.421" ry="0.421" transform="translate(29.714 0.156)" fill="#e4effd"/><ellipse cx="0.421" cy="0.421" rx="0.421" ry="0.421" transform="translate(12.927 1.026)" fill="#e4effd"/><ellipse cx="0.421" cy="0.421" rx="0.421" ry="0.421" transform="translate(11.058 1.121)" fill="#e4effd"/><ellipse cx="0.421" cy="0.421" rx="0.421" ry="0.421" transform="translate(9.372 1.285)" fill="#e4effd"/><path d="M2082.238,1585.744a.431.431,0,0,1-.292.279.42.42,0,0,1-.2-.816c.007,0,.021-.007.027-.007C2081.939,1585.4,2082.1,1585.581,2082.238,1585.744Z" transform="translate(-2050.016 -1585.2)" fill="#e4effd"/><ellipse cx="0.421" cy="0.421" rx="0.421" ry="0.421" transform="translate(0 1.74)" fill="#e4effd"/><ellipse cx="0.421" cy="0.421" rx="0.421" ry="0.421" transform="translate(1.862 1.638)" fill="#e4effd"/><ellipse cx="0.421" cy="0.421" rx="0.421" ry="0.421" transform="translate(3.731 1.543)" fill="#e4effd"/><ellipse cx="0.421" cy="0.421" rx="0.421" ry="0.421" transform="translate(5.593 1.448)" fill="#e4effd"/><ellipse cx="0.421" cy="0.421" rx="0.421" ry="0.421" transform="translate(7.463 1.352)" fill="#e4effd"/></g><g transform="translate(2.78 4.737)"><ellipse cx="0.421" cy="0.421" rx="0.421" ry="0.421" transform="translate(14.945 0.7)" fill="#e4effd"/><ellipse cx="0.421" cy="0.421" rx="0.421" ry="0.421" transform="translate(16.814 0.605)" fill="#e4effd"/><ellipse cx="0.421" cy="0.421" rx="0.421" ry="0.421" transform="translate(18.684 0.51)" fill="#e4effd"/><ellipse cx="0.421" cy="0.421" rx="0.421" ry="0.421" transform="translate(20.546 0.415)" fill="#e4effd"/><ellipse cx="0.421" cy="0.421" rx="0.421" ry="0.421" transform="translate(22.415 0.313)" fill="#e4effd"/><ellipse cx="0.421" cy="0.421" rx="0.421" ry="0.421" transform="translate(24.277 0.217)" fill="#e4effd"/><ellipse cx="0.421" cy="0.421" rx="0.421" ry="0.421" transform="translate(26.146 0.122)" fill="#e4effd"/><ellipse cx="0.421" cy="0.421" rx="0.421" ry="0.421" transform="translate(28.008 0.027)" fill="#e4effd"/><path d="M2070.366,1570.018a.387.387,0,0,1-.218.136.417.417,0,0,1-.51-.306.427.427,0,0,1,.163-.448C2070,1569.618,2070.189,1569.821,2070.366,1570.018Z" transform="translate(-2039.748 -1569.4)" fill="#e4effd"/><ellipse cx="0.421" cy="0.421" rx="0.421" ry="0.421" transform="translate(13.083 0.802)" fill="#e4effd"/><ellipse cx="0.421" cy="0.421" rx="0.421" ry="0.421" transform="translate(11.214 0.897)" fill="#e4effd"/><ellipse cx="0.421" cy="0.421" rx="0.421" ry="0.421" transform="translate(0 1.488)" fill="#e4effd"/><ellipse cx="0.421" cy="0.421" rx="0.421" ry="0.421" transform="translate(1.869 1.393)" fill="#e4effd"/><ellipse cx="0.421" cy="0.421" rx="0.421" ry="0.421" transform="translate(3.731 1.291)" fill="#e4effd"/><ellipse cx="0.421" cy="0.421" rx="0.421" ry="0.421" transform="translate(5.6 1.196)" fill="#e4effd"/><ellipse cx="0.421" cy="0.421" rx="0.421" ry="0.421" transform="translate(7.463 1.101)" fill="#e4effd"/><ellipse cx="0.421" cy="0.421" rx="0.421" ry="0.421" transform="translate(9.332 1.006)" fill="#e4effd"/></g><g transform="translate(0.618 8.456)"><ellipse cx="0.421" cy="0.421" rx="0.421" ry="0.421" transform="translate(16.658 0.936)" fill="#e4effd"/><ellipse cx="0.421" cy="0.421" rx="0.421" ry="0.421" transform="translate(18.527 0.841)" fill="#e4effd"/><ellipse cx="0.421" cy="0.421" rx="0.421" ry="0.421" transform="translate(20.389 0.739)" fill="#e4effd"/><ellipse cx="0.421" cy="0.421" rx="0.421" ry="0.421" transform="translate(22.258 0.644)" fill="#e4effd"/><ellipse cx="0.421" cy="0.421" rx="0.421" ry="0.421" transform="translate(24.121 0.549)" fill="#e4effd"/><ellipse cx="0.421" cy="0.421" rx="0.421" ry="0.421" transform="translate(25.99 0.454)" fill="#e4effd"/><ellipse cx="0.421" cy="0.421" rx="0.421" ry="0.421" transform="translate(27.852 0.352)" fill="#e4effd"/><ellipse cx="0.421" cy="0.421" rx="0.421" ry="0.421" transform="translate(29.721 0.257)" fill="#e4effd"/><ellipse cx="0.421" cy="0.421" rx="0.421" ry="0.421" transform="translate(31.583 0.162)" fill="#e4effd"/><ellipse cx="0.421" cy="0.421" rx="0.421" ry="0.421" transform="translate(14.796 1.032)" fill="#e4effd"/><ellipse cx="0.421" cy="0.421" rx="0.421" ry="0.421" transform="translate(12.927 1.127)" fill="#e4effd"/><ellipse cx="0.421" cy="0.421" rx="0.421" ry="0.421" transform="translate(11.241 1.29)" fill="#e4effd"/><path d="M2088.348,1624.174c-.15.231-.313.462-.483.68a.447.447,0,0,1-.129-.211.42.42,0,0,1,.612-.469Z" transform="translate(-2054.453 -1624.121)" fill="#e4effd"/><ellipse cx="0.421" cy="0.421" rx="0.421" ry="0.421" transform="translate(0 1.84)" fill="#e4effd"/><ellipse cx="0.421" cy="0.421" rx="0.421" ry="0.421" transform="translate(1.869 1.738)" fill="#e4effd"/><ellipse cx="0.421" cy="0.421" rx="0.421" ry="0.421" transform="translate(3.731 1.643)" fill="#e4effd"/><ellipse cx="0.421" cy="0.421" rx="0.421" ry="0.421" transform="translate(5.6 1.548)" fill="#e4effd"/><ellipse cx="0.421" cy="0.421" rx="0.421" ry="0.421" transform="translate(7.463 1.453)" fill="#e4effd"/><ellipse cx="0.421" cy="0.421" rx="0.421" ry="0.421" transform="translate(9.332 1.351)" fill="#e4effd"/></g><g transform="translate(1.352 7.313)"><ellipse cx="0.421" cy="0.421" rx="0.421" ry="0.421" transform="translate(16.814 0.775)" fill="#e4effd"/><ellipse cx="0.421" cy="0.421" rx="0.421" ry="0.421" transform="translate(18.677 0.68)" fill="#e4effd"/><ellipse cx="0.421" cy="0.421" rx="0.421" ry="0.421" transform="translate(20.546 0.584)" fill="#e4effd"/><ellipse cx="0.421" cy="0.421" rx="0.421" ry="0.421" transform="translate(22.408 0.483)" fill="#e4effd"/><ellipse cx="0.421" cy="0.421" rx="0.421" ry="0.421" transform="translate(24.277 0.387)" fill="#e4effd"/><ellipse cx="0.421" cy="0.421" rx="0.421" ry="0.421" transform="translate(26.139 0.292)" fill="#e4effd"/><ellipse cx="0.421" cy="0.421" rx="0.421" ry="0.421" transform="translate(28.008 0.197)" fill="#e4effd"/><ellipse cx="0.421" cy="0.421" rx="0.421" ry="0.421" transform="translate(29.87 0.095)" fill="#e4effd"/><ellipse cx="0.421" cy="0.421" rx="0.421" ry="0.421" transform="translate(31.74)" fill="#e4effd"/><ellipse cx="0.421" cy="0.421" rx="0.421" ry="0.421" transform="translate(14.945 0.87)" fill="#e4effd"/><ellipse cx="0.421" cy="0.421" rx="0.421" ry="0.421" transform="translate(13.076 0.972)" fill="#e4effd"/><ellipse cx="0.421" cy="0.421" rx="0.421" ry="0.421" transform="translate(0 1.658)" fill="#e4effd"/><ellipse cx="0.421" cy="0.421" rx="0.421" ry="0.421" transform="translate(1.862 1.563)" fill="#e4effd"/><ellipse cx="0.421" cy="0.421" rx="0.421" ry="0.421" transform="translate(3.731 1.468)" fill="#e4effd"/><ellipse cx="0.421" cy="0.421" rx="0.421" ry="0.421" transform="translate(5.593 1.366)" fill="#e4effd"/><ellipse cx="0.421" cy="0.421" rx="0.421" ry="0.421" transform="translate(7.463 1.271)" fill="#e4effd"/><ellipse cx="0.421" cy="0.421" rx="0.421" ry="0.421" transform="translate(9.325 1.176)" fill="#e4effd"/><ellipse cx="0.421" cy="0.421" rx="0.421" ry="0.421" transform="translate(11.194 1.081)" fill="#e4effd"/></g><g transform="translate(0.788 11.337)"><ellipse cx="0.421" cy="0.421" rx="0.421" ry="0.421" transform="translate(14.789 0.775)" fill="#e4effd"/><ellipse cx="0.421" cy="0.421" rx="0.421" ry="0.421" transform="translate(16.658 0.68)" fill="#e4effd"/><ellipse cx="0.421" cy="0.421" rx="0.421" ry="0.421" transform="translate(18.52 0.584)" fill="#e4effd"/><ellipse cx="0.421" cy="0.421" rx="0.421" ry="0.421" transform="translate(20.389 0.483)" fill="#e4effd"/><ellipse cx="0.421" cy="0.421" rx="0.421" ry="0.421" transform="translate(22.252 0.387)" fill="#e4effd"/><ellipse cx="0.421" cy="0.421" rx="0.421" ry="0.421" transform="translate(24.121 0.292)" fill="#e4effd"/><ellipse cx="0.421" cy="0.421" rx="0.421" ry="0.421" transform="translate(25.983 0.197)" fill="#e4effd"/><ellipse cx="0.421" cy="0.421" rx="0.421" ry="0.421" transform="translate(27.852 0.095)" fill="#e4effd"/><ellipse cx="0.421" cy="0.421" rx="0.421" ry="0.421" transform="translate(29.721)" fill="#e4effd"/><ellipse cx="0.421" cy="0.421" rx="0.421" ry="0.421" transform="translate(12.927 0.87)" fill="#e4effd"/><ellipse cx="0.421" cy="0.421" rx="0.421" ry="0.421" transform="translate(11.058 0.972)" fill="#e4effd"/><ellipse cx="0.421" cy="0.421" rx="0.421" ry="0.421" transform="translate(9.372 1.128)" fill="#e4effd"/><ellipse cx="0.421" cy="0.421" rx="0.421" ry="0.421" transform="translate(0 1.584)" fill="#e4effd"/><ellipse cx="0.421" cy="0.421" rx="0.421" ry="0.421" transform="translate(1.862 1.488)" fill="#e4effd"/><ellipse cx="0.421" cy="0.421" rx="0.421" ry="0.421" transform="translate(3.731 1.386)" fill="#e4effd"/><ellipse cx="0.421" cy="0.421" rx="0.421" ry="0.421" transform="translate(5.593 1.291)" fill="#e4effd"/><ellipse cx="0.421" cy="0.421" rx="0.421" ry="0.421" transform="translate(7.463 1.196)" fill="#e4effd"/></g><g transform="translate(0.068 10.038)"><ellipse cx="0.421" cy="0.421" rx="0.421" ry="0.421" transform="translate(16.4 0.775)" fill="#e4effd"/><ellipse cx="0.421" cy="0.421" rx="0.421" ry="0.421" transform="translate(18.262 0.673)" fill="#e4effd"/><ellipse cx="0.421" cy="0.421" rx="0.421" ry="0.421" transform="translate(20.131 0.578)" fill="#e4effd"/><ellipse cx="0.421" cy="0.421" rx="0.421" ry="0.421" transform="translate(21.993 0.483)" fill="#e4effd"/><ellipse cx="0.421" cy="0.421" rx="0.421" ry="0.421" transform="translate(23.862 0.387)" fill="#e4effd"/><ellipse cx="0.421" cy="0.421" rx="0.421" ry="0.421" transform="translate(25.725 0.285)" fill="#e4effd"/><ellipse cx="0.421" cy="0.421" rx="0.421" ry="0.421" transform="translate(27.594 0.19)" fill="#e4effd"/><ellipse cx="0.421" cy="0.421" rx="0.421" ry="0.421" transform="translate(29.456 0.095)" fill="#e4effd"/><ellipse cx="0.421" cy="0.421" rx="0.421" ry="0.421" transform="translate(31.325)" fill="#e4effd"/><ellipse cx="0.421" cy="0.421" rx="0.421" ry="0.421" transform="translate(14.531 0.87)" fill="#e4effd"/><ellipse cx="0.421" cy="0.421" rx="0.421" ry="0.421" transform="translate(12.669 0.965)" fill="#e4effd"/><path d="M1590.127,1673.382h-.027c.068-.245.143-.5.217-.782a.413.413,0,0,1,.2.34A.419.419,0,0,1,1590.127,1673.382Z" transform="translate(-1590.1 -1670.887)" fill="#e4effd"/><ellipse cx="0.421" cy="0.421" rx="0.421" ry="0.421" transform="translate(1.448 1.556)" fill="#e4effd"/><ellipse cx="0.421" cy="0.421" rx="0.421" ry="0.421" transform="translate(3.317 1.461)" fill="#e4effd"/><ellipse cx="0.421" cy="0.421" rx="0.421" ry="0.421" transform="translate(5.179 1.366)" fill="#e4effd"/><ellipse cx="0.421" cy="0.421" rx="0.421" ry="0.421" transform="translate(7.048 1.264)" fill="#e4effd"/><ellipse cx="0.421" cy="0.421" rx="0.421" ry="0.421" transform="translate(8.91 1.169)" fill="#e4effd"/><ellipse cx="0.421" cy="0.421" rx="0.421" ry="0.421" transform="translate(10.779 1.074)" fill="#e4effd"/></g><g transform="translate(2.969 13.899)"><ellipse cx="0.421" cy="0.421" rx="0.421" ry="0.421" transform="translate(12.934 0.938)" fill="#e4effd"/><ellipse cx="0.421" cy="0.421" rx="0.421" ry="0.421" transform="translate(14.797 0.836)" fill="#e4effd"/><ellipse cx="0.421" cy="0.421" rx="0.421" ry="0.421" transform="translate(16.666 0.741)" fill="#e4effd"/><ellipse cx="0.421" cy="0.421" rx="0.421" ry="0.421" transform="translate(18.528 0.646)" fill="#e4effd"/><ellipse cx="0.421" cy="0.421" rx="0.421" ry="0.421" transform="translate(20.397 0.551)" fill="#e4effd"/><ellipse cx="0.421" cy="0.421" rx="0.421" ry="0.421" transform="translate(22.259 0.449)" fill="#e4effd"/><ellipse cx="0.421" cy="0.421" rx="0.421" ry="0.421" transform="translate(24.128 0.353)" fill="#e4effd"/><ellipse cx="0.421" cy="0.421" rx="0.421" ry="0.421" transform="translate(25.99 0.258)" fill="#e4effd"/><ellipse cx="0.421" cy="0.421" rx="0.421" ry="0.421" transform="translate(27.859 0.163)" fill="#e4effd"/><ellipse cx="0.421" cy="0.421" rx="0.421" ry="0.421" transform="translate(11.065 1.033)" fill="#e4effd"/><ellipse cx="0.421" cy="0.421" rx="0.421" ry="0.421" transform="translate(9.203 1.128)" fill="#e4effd"/><ellipse cx="0.421" cy="0.421" rx="0.421" ry="0.421" transform="translate(7.511 1.291)" fill="#e4effd"/><ellipse cx="0.421" cy="0.421" rx="0.421" ry="0.421" transform="translate(29.545)" fill="#e4effd"/><path d="M1634.655,1738.636a.283.283,0,0,1-.109.02.411.411,0,0,1-.347-.156C1634.349,1738.548,1634.5,1738.588,1634.655,1738.636Z" transform="translate(-1634.104 -1736.169)" fill="#e4effd"/><path d="M1633.633,1728.8a.413.413,0,0,1-.292.421h0c-.156-.041-.306-.088-.455-.136h0a.432.432,0,0,1-.1-.245.418.418,0,0,1,.394-.442A.426.426,0,0,1,1633.633,1728.8Z" transform="translate(-1632.789 -1726.752)" fill="#e4effd"/><ellipse cx="0.421" cy="0.421" rx="0.421" ry="0.421" transform="translate(1.87 1.55)" fill="#e4effd"/><ellipse cx="0.421" cy="0.421" rx="0.421" ry="0.421" transform="translate(3.739 1.454)" fill="#e4effd"/><ellipse cx="0.421" cy="0.421" rx="0.421" ry="0.421" transform="translate(5.601 1.352)" fill="#e4effd"/></g><g transform="translate(0 12.757)"><ellipse cx="0.421" cy="0.421" rx="0.421" ry="0.421" transform="translate(16.787 0.775)" fill="#e4effd"/><ellipse cx="0.421" cy="0.421" rx="0.421" ry="0.421" transform="translate(18.656 0.68)" fill="#e4effd"/><ellipse cx="0.421" cy="0.421" rx="0.421" ry="0.421" transform="translate(20.519 0.584)" fill="#e4effd"/><ellipse cx="0.421" cy="0.421" rx="0.421" ry="0.421" transform="translate(22.388 0.483)" fill="#e4effd"/><ellipse cx="0.421" cy="0.421" rx="0.421" ry="0.421" transform="translate(24.25 0.387)" fill="#e4effd"/><ellipse cx="0.421" cy="0.421" rx="0.421" ry="0.421" transform="translate(26.119 0.292)" fill="#e4effd"/><ellipse cx="0.421" cy="0.421" rx="0.421" ry="0.421" transform="translate(27.981 0.197)" fill="#e4effd"/><ellipse cx="0.421" cy="0.421" rx="0.421" ry="0.421" transform="translate(29.85 0.095)" fill="#e4effd"/><ellipse cx="0.421" cy="0.421" rx="0.421" ry="0.421" transform="translate(31.712)" fill="#e4effd"/><ellipse cx="0.421" cy="0.421" rx="0.421" ry="0.421" transform="translate(14.918 0.87)" fill="#e4effd"/><ellipse cx="0.421" cy="0.421" rx="0.421" ry="0.421" transform="translate(13.056 0.972)" fill="#e4effd"/><path d="M1589.916,1712.191a.424.424,0,0,1-.156.353,6.59,6.59,0,0,1-.659-.455.416.416,0,0,1,.816.1Z" transform="translate(-1589.1 -1710.132)" fill="#e4effd"/><ellipse cx="0.421" cy="0.421" rx="0.421" ry="0.421" transform="translate(1.842 1.563)" fill="#e4effd"/><ellipse cx="0.421" cy="0.421" rx="0.421" ry="0.421" transform="translate(3.704 1.461)" fill="#e4effd"/><ellipse cx="0.421" cy="0.421" rx="0.421" ry="0.421" transform="translate(5.573 1.366)" fill="#e4effd"/><ellipse cx="0.421" cy="0.421" rx="0.421" ry="0.421" transform="translate(7.435 1.271)" fill="#e4effd"/><ellipse cx="0.421" cy="0.421" rx="0.421" ry="0.421" transform="translate(9.304 1.176)" fill="#e4effd"/><ellipse cx="0.421" cy="0.421" rx="0.421" ry="0.421" transform="translate(11.167 1.074)" fill="#e4effd"/></g><g transform="translate(12.512 16.617)"><ellipse cx="0.421" cy="0.421" rx="0.421" ry="0.421" transform="translate(7.327 0.68)" fill="#e4effd"/><ellipse cx="0.421" cy="0.421" rx="0.421" ry="0.421" transform="translate(9.196 0.578)" fill="#e4effd"/><ellipse cx="0.421" cy="0.421" rx="0.421" ry="0.421" transform="translate(11.058 0.483)" fill="#e4effd"/><ellipse cx="0.421" cy="0.421" rx="0.421" ry="0.421" transform="translate(12.927 0.387)" fill="#e4effd"/><ellipse cx="0.421" cy="0.421" rx="0.421" ry="0.421" transform="translate(14.789 0.292)" fill="#e4effd"/><ellipse cx="0.421" cy="0.421" rx="0.421" ry="0.421" transform="translate(16.658 0.19)" fill="#e4effd"/><ellipse cx="0.421" cy="0.421" rx="0.421" ry="0.421" transform="translate(18.52 0.095)" fill="#e4effd"/><ellipse cx="0.421" cy="0.421" rx="0.421" ry="0.421" transform="translate(20.389)" fill="#e4effd"/><ellipse cx="0.421" cy="0.421" rx="0.421" ry="0.421" transform="translate(5.464 0.775)" fill="#e4effd"/><ellipse cx="0.421" cy="0.421" rx="0.421" ry="0.421" transform="translate(3.595 0.87)" fill="#e4effd"/><ellipse cx="0.421" cy="0.421" rx="0.421" ry="0.421" transform="translate(1.91 1.033)" fill="#e4effd"/><ellipse cx="0.421" cy="0.421" rx="0.421" ry="0.421" transform="translate(0 1.094)" fill="#e4effd"/></g><g transform="translate(7.653 15.312)"><ellipse cx="0.421" cy="0.421" rx="0.421" ry="0.421" transform="translate(13.076 0.68)" fill="#e4effd"/><ellipse cx="0.421" cy="0.421" rx="0.421" ry="0.421" transform="translate(14.939 0.584)" fill="#e4effd"/><ellipse cx="0.421" cy="0.421" rx="0.421" ry="0.421" transform="translate(16.808 0.483)" fill="#e4effd"/><ellipse cx="0.421" cy="0.421" rx="0.421" ry="0.421" transform="translate(18.67 0.387)" fill="#e4effd"/><ellipse cx="0.421" cy="0.421" rx="0.421" ry="0.421" transform="translate(20.539 0.292)" fill="#e4effd"/><ellipse cx="0.421" cy="0.421" rx="0.421" ry="0.421" transform="translate(22.401 0.197)" fill="#e4effd"/><ellipse cx="0.421" cy="0.421" rx="0.421" ry="0.421" transform="translate(24.27 0.095)" fill="#e4effd"/><ellipse cx="0.421" cy="0.421" rx="0.421" ry="0.421" transform="translate(26.132)" fill="#e4effd"/><ellipse cx="0.421" cy="0.421" rx="0.421" ry="0.421" transform="translate(11.207 0.775)" fill="#e4effd"/><ellipse cx="0.421" cy="0.421" rx="0.421" ry="0.421" transform="translate(9.345 0.87)" fill="#e4effd"/><path d="M1702.536,1745.6c-.285-.014-.564-.027-.836-.047a.42.42,0,0,1,.836.027Z" transform="translate(-1701.7 -1743.817)" fill="#e4effd"/><path d="M1729.926,1744.1a.391.391,0,0,1-.014.129c-.279.007-.544.007-.809.007a.4.4,0,0,1-.013-.1.418.418,0,0,1,.394-.442A.428.428,0,0,1,1729.926,1744.1Z" transform="translate(-1727.228 -1742.427)" fill="#e4effd"/><ellipse cx="0.421" cy="0.421" rx="0.421" ry="0.421" transform="translate(3.724 1.176)" fill="#e4effd"/><ellipse cx="0.421" cy="0.421" rx="0.421" ry="0.421" transform="translate(5.587 1.081)" fill="#e4effd"/><ellipse cx="0.421" cy="0.421" rx="0.421" ry="0.421" transform="translate(7.456 0.979)" fill="#e4effd"/></g><g transform="translate(14.911 19.587)"><ellipse cx="0.421" cy="0.421" rx="0.421" ry="0.421" transform="translate(5.417 0.483)" fill="#e4effd"/><ellipse cx="0.421" cy="0.421" rx="0.421" ry="0.421" transform="translate(7.286 0.387)" fill="#e4effd"/><ellipse cx="0.421" cy="0.421" rx="0.421" ry="0.421" transform="translate(9.148 0.292)" fill="#e4effd"/><ellipse cx="0.421" cy="0.421" rx="0.421" ry="0.421" transform="translate(11.017 0.197)" fill="#e4effd"/><ellipse cx="0.421" cy="0.421" rx="0.421" ry="0.421" transform="translate(12.879 0.095)" fill="#e4effd"/><ellipse cx="0.421" cy="0.421" rx="0.421" ry="0.421" transform="translate(14.748)" fill="#e4effd"/><ellipse cx="0.421" cy="0.421" rx="0.421" ry="0.421" transform="translate(3.555 0.584)" fill="#e4effd"/><ellipse cx="0.421" cy="0.421" rx="0.421" ry="0.421" transform="translate(1.686 0.68)" fill="#e4effd"/><ellipse cx="0.421" cy="0.421" rx="0.421" ry="0.421" transform="translate(0 0.843)" fill="#e4effd"/></g><g transform="translate(13.729 18.289)"><ellipse cx="0.421" cy="0.421" rx="0.421" ry="0.421" transform="translate(7.49 0.483)" fill="#e4effd"/><ellipse cx="0.421" cy="0.421" rx="0.421" ry="0.421" transform="translate(9.352 0.387)" fill="#e4effd"/><ellipse cx="0.421" cy="0.421" rx="0.421" ry="0.421" transform="translate(11.221 0.285)" fill="#e4effd"/><ellipse cx="0.421" cy="0.421" rx="0.421" ry="0.421" transform="translate(13.083 0.19)" fill="#e4effd"/><ellipse cx="0.421" cy="0.421" rx="0.421" ry="0.421" transform="translate(14.952 0.095)" fill="#e4effd"/><ellipse cx="0.421" cy="0.421" rx="0.421" ry="0.421" transform="translate(16.814)" fill="#e4effd"/><ellipse cx="0.421" cy="0.421" rx="0.421" ry="0.421" transform="translate(5.621 0.578)" fill="#e4effd"/><ellipse cx="0.421" cy="0.421" rx="0.421" ry="0.421" transform="translate(3.758 0.673)" fill="#e4effd"/><ellipse cx="0.421" cy="0.421" rx="0.421" ry="0.421" transform="translate(0 0.877)" fill="#e4effd"/><ellipse cx="0.421" cy="0.421" rx="0.421" ry="0.421" transform="translate(1.869 0.782)" fill="#e4effd"/></g><g transform="translate(18.466 22.632)"><ellipse cx="0.421" cy="0.421" rx="0.421" ry="0.421" transform="translate(1.862 0.387)" fill="#e4effd"/><ellipse cx="0.421" cy="0.421" rx="0.421" ry="0.421" transform="translate(3.731 0.285)" fill="#e4effd"/><ellipse cx="0.421" cy="0.421" rx="0.421" ry="0.421" transform="translate(5.593 0.19)" fill="#e4effd"/><ellipse cx="0.421" cy="0.421" rx="0.421" ry="0.421" transform="translate(7.463 0.095)" fill="#e4effd"/><ellipse cx="0.421" cy="0.421" rx="0.421" ry="0.421" transform="translate(9.325)" fill="#e4effd"/><ellipse cx="0.421" cy="0.421" rx="0.421" ry="0.421" transform="translate(0 0.353)" fill="#e4effd"/></g><g transform="translate(17.487 21.327)"><ellipse cx="0.421" cy="0.421" rx="0.421" ry="0.421" transform="translate(3.731 0.387)" fill="#e4effd"/><ellipse cx="0.421" cy="0.421" rx="0.421" ry="0.421" transform="translate(5.593 0.292)" fill="#e4effd"/><ellipse cx="0.421" cy="0.421" rx="0.421" ry="0.421" transform="translate(7.463 0.197)" fill="#e4effd"/><ellipse cx="0.421" cy="0.421" rx="0.421" ry="0.421" transform="translate(9.325 0.095)" fill="#e4effd"/><ellipse cx="0.421" cy="0.421" rx="0.421" ry="0.421" transform="translate(11.194)" fill="#e4effd"/><ellipse cx="0.421" cy="0.421" rx="0.421" ry="0.421" transform="translate(1.862 0.483)" fill="#e4effd"/><ellipse cx="0.421" cy="0.421" rx="0.421" ry="0.421" transform="translate(0 0.584)" fill="#e4effd"/></g></g></g><path d="M1877.9,1704.48s4.207-17.78,19.6-19.832,60.706.4,71.213,3.093,20.389,8.733,20.451,16.706l-55.357.034Z" transform="translate(-1857.857 -1653.235)" fill="#88bed7"/><g transform="translate(11.697 4.279)"><g transform="translate(0 7.812)"><path d="M1757.2,1410.8a10.958,10.958,0,0,1-2.1,6.083,13.526,13.526,0,0,0,9.461.068s-2.99-1-1.842-6.151Z" transform="translate(-1755.1 -1410.8)" fill="#edb98a"/><path d="M1792.054,1415.741a.593.593,0,0,1-.183.15,4.525,4.525,0,0,1-5.145-2.311,8.278,8.278,0,0,1-.625-2.678v-.1h5.519C1791.048,1413.308,1791.469,1414.837,1792.054,1415.741Z" transform="translate(-1783.993 -1410.8)" fill="#d97802"/></g><path d="M1775.627,1300.593c-.014-.374-.224-1.482-.816-.9-.652.646-2.868.6-3.908-.1-.9-.6-1.482.007-1.536,1.189a2.271,2.271,0,0,1-.822,1.665l-1.047-.3s-1.719-4.812,1.658-5.995c3.1-1.087,5.825,1.04,6.151,2.019A11.9,11.9,0,0,1,1775.627,1300.593Z" transform="translate(-1766.248 -1295.86)" fill="#40465c"/><path d="M1779.376,1351.852c-.462,3.439-1.271,3.255-1.767,3.473a5.218,5.218,0,0,1-4.037-.938,16.181,16.181,0,0,1-1.434-2.3v.013s-1.257-1.271-1.026-1.74c.367-.761,1.074.027,1.223.2a2.278,2.278,0,0,0,.788-1.631c.054-1.189.639-1.794,1.536-1.189,1.04.7,3.256.741,3.908.1.408-.408.68.081.8.53A29.037,29.037,0,0,1,1779.376,1351.852Z" transform="translate(-1769.997 -1343.993)" fill="#edb98a"/></g><g transform="translate(3.521)"><g transform="translate(0 30.17)"><path d="M1665.711,1743.077a.443.443,0,0,1-.659.163c-.3-.177-.9-.673-1.278-.856.564.652,1.121,1.346,1.121,1.346a2.082,2.082,0,0,1-1.291.578c-.4.041-1.162-.659-1.815-1.033s-1.373.394-2.311.68c-.707.211-1.74-.632-2.2-1.06-1.679,1.414-7.395,5.825-14.109,6.423-8.081.72-8.367-9.216-8.367-9.216a28.1,28.1,0,0,0,8.108.748l.625.952c8.863-1.407,13.056-1.312,14.259-1.237a29.813,29.813,0,0,1,4.8.639,4.65,4.65,0,0,1,1.733.564C1664.677,1742.024,1665.711,1743.077,1665.711,1743.077Z" transform="translate(-1634.8 -1735.798)" fill="#edb98a"/><g transform="translate(25.861 5.797)"><path d="M2024.31,1764.4a12.455,12.455,0,0,0-1.828-1.828L2021,1762.1" transform="translate(-2020.612 -1762.1)" fill="none" stroke="#edb98a" stroke-linecap="round" stroke-miterlimit="10" stroke-width="3"/><path d="M2018.495,1771.719a10.953,10.953,0,0,0-1.713-1.55l-1.482-.469" transform="translate(-2015.3 -1769.183)" fill="none" stroke="#edb98a" stroke-linecap="round" stroke-miterlimit="10" stroke-width="3"/></g><path d="M1643.534,1741.9a20.141,20.141,0,0,0-8.217,1.407,14.432,14.432,0,0,1-.517-3.106,28.1,28.1,0,0,0,8.108.748Z" transform="translate(-1634.8 -1735.891)" fill="#d97802"/><path d="M1731.365,1682.563A23.463,23.463,0,0,1,1729,1676.8" transform="translate(-1722.598 -1676.8)" fill="none" stroke="#c4d7f6" stroke-linecap="round" stroke-miterlimit="10" stroke-width="6"/></g><g transform="translate(25.242)"><path d="M2063.606,1621.587s-.177,1.2-.259,1.414a6.67,6.67,0,0,1-1.855,2.25c-.686.279-3.609-.251-4.187-.347l-.115-.02c-2.413-.014-12.893.122-15.843-.87-1.815-.612-5.519-3.249-5.648-4.526a9.024,9.024,0,0,0,4.506-3.487s2.474,2.957,3.194,2.9c3.609-.286,9.991,2.515,13.076,3.758,0-.007.007-.007.014-.013a7.511,7.511,0,0,1,3.167-1.713c.3.014,1.842.075,1.842.075a1.075,1.075,0,0,1-.387.836c-.258.17-1.244.082-1.332.49s.387.666.646.7c.618.075,1.815.034,2.2-.952A.7.7,0,0,1,2063.606,1621.587Z" transform="translate(-2033.695 -1589.962)" fill="#edb98a"/><path d="M2032.6,1619.361s3.33-1.135,4.71-3.561l.734.843s-2.977,2.148-3.167,5.023A8.5,8.5,0,0,1,2032.6,1619.361Z" transform="translate(-2030.806 -1589.776)" fill="#d97802"/><g transform="translate(6.695)"><path d="M2135.154,1232.9v29.816c0,1.162-.625,1.468-1.081,1.468h-.1a1.3,1.3,0,0,1-1.271-1.1" transform="translate(-2130.797 -1232.9)" fill="none" stroke="#88bed7" stroke-miterlimit="10" stroke-width="5"/><path d="M2105.74,1661.475l1.821-1.373-1.1-.8-1.76,1.3Z" transform="translate(-2104.7 -1630.32)" fill="#fff"/></g><path d="M2006.2,1630.6a14.62,14.62,0,0,0,5.023,5.865" transform="translate(-2006.2 -1603.57)" fill="none" stroke="#c4d7f6" stroke-linecap="round" stroke-miterlimit="10" stroke-width="6"/></g></g></g><g transform="translate(0 26.506)"><path d="M2755.8,1883.351h-55.3v-.143a7.408,7.408,0,0,1,7.408-7.408h40.473a7.408,7.408,0,0,1,7.408,7.408v.143Z" transform="translate(-2596.677 -1858.612)" fill="#e4effd"/><g transform="translate(103.585)"><path d="M2748.227,1622.9h-40.351a7.476,7.476,0,0,0-7.476,7.476v17.263h55.3v-17.263A7.466,7.466,0,0,0,2748.227,1622.9Z" transform="translate(-2700.169 -1622.9)" fill="none" stroke="#6562ce" stroke-miterlimit="10" stroke-width="6"/><line x2="55.534" transform="translate(0 10.67)" fill="none" stroke="#6562ce" stroke-miterlimit="10" stroke-width="6"/></g><rect width="55.038" height="6.905" transform="translate(106.079 24.739)" fill="#fff" stroke="#88bed7" stroke-miterlimit="10" stroke-width="5"/><rect width="106.079" height="6.905" transform="translate(0 24.739)" fill="#fff" stroke="#88bed7" stroke-miterlimit="10" stroke-width="5"/></g></g><g transform="translate(13.185 54.63)"><path d="M623.7,1559.863V1556.9h21.253v.367Z" transform="translate(-615.497 -1538.135)" fill="#cbe1fd"/><g transform="translate(2.053 67.006)"><path d="M536.4,2266.7v.8a.979.979,0,0,1-.979.979h0a2.219,2.219,0,0,0-2.222,2.223v.217" transform="translate(-533.2 -2266.7)" fill="none" stroke="#88bed7" stroke-miterlimit="10" stroke-width="5"/><ellipse cx="1.774" cy="1.774" rx="1.774" ry="1.774" transform="translate(0.659 2.365)" fill="none" stroke="#fa4d56" stroke-miterlimit="10" stroke-width="5"/><g transform="translate(9.814)"><path d="M680.8,2266.7v.8a.979.979,0,0,1-.979.979h0a2.219,2.219,0,0,0-2.222,2.223v.217" transform="translate(-677.6 -2266.7)" fill="none" stroke="#88bed7" stroke-miterlimit="10" stroke-width="5"/><ellipse cx="1.774" cy="1.774" rx="1.774" ry="1.774" transform="translate(0.659 2.365)" fill="none" stroke="#fa4d56" stroke-miterlimit="10" stroke-width="5"/></g><g transform="translate(29.904)"><path d="M987.9,2266.7v.8a.979.979,0,0,0,.979.979h0a2.219,2.219,0,0,1,2.223,2.223v.217" transform="translate(-986.901 -2266.7)" fill="none" stroke="#88bed7" stroke-miterlimit="10" stroke-width="5"/><ellipse cx="1.774" cy="1.774" rx="1.774" ry="1.774" transform="translate(0 2.365)" fill="none" stroke="#fa4d56" stroke-miterlimit="10" stroke-width="5"/></g></g><path d="M527.359,1645.717H505.623a2.625,2.625,0,0,1-2.623-2.623v-39.97a2.625,2.625,0,0,1,2.623-2.623h21.735a2.625,2.625,0,0,1,2.623,2.623v39.97A2.625,2.625,0,0,1,527.359,1645.717Z" transform="translate(-503 -1578.772)" fill="#fff" stroke="#88bed7" stroke-miterlimit="10" stroke-width="5"/><path d="M684.552,1645.717H662.824a2.625,2.625,0,0,1-2.623-2.623v-39.97a2.625,2.625,0,0,1,2.623-2.623h21.735a2.625,2.625,0,0,1,2.623,2.623v39.97A2.635,2.635,0,0,1,684.552,1645.717Z" transform="translate(-649.516 -1578.772)" fill="#fff" stroke="#88bed7" stroke-miterlimit="10" stroke-width="5"/><g transform="translate(11.704 23.482)"><path d="M699.042,1639.172H676.369A1.169,1.169,0,0,1,675.2,1638v-10.534a1.169,1.169,0,0,1,1.169-1.169h22.673a1.169,1.169,0,0,1,1.169,1.169V1638A1.16,1.16,0,0,1,699.042,1639.172Z" transform="translate(-675.2 -1626.3)" fill="#fff" stroke="#88bed7" stroke-miterlimit="10" stroke-width="5"/><path d="M794.071,1720.62h-7.8a.477.477,0,0,1-.476-.476v-.068a.477.477,0,0,1,.476-.476h7.8a.477.477,0,0,1,.476.476v.068A.473.473,0,0,1,794.071,1720.62Z" transform="translate(-778.283 -1713.259)" fill="#e4effd"/><path d="M803.071,1714.238h-7.8a.47.47,0,0,1-.469-.469h0a.47.47,0,0,1,.469-.469h7.8a.47.47,0,0,1,.469.469h0A.462.462,0,0,1,803.071,1714.238Z" transform="translate(-786.671 -1707.387)" fill="#fa4d56" stroke="#fa4d56" stroke-miterlimit="10" stroke-width="5"/></g><g transform="translate(11.704 37.802)"><path d="M699.042,1849.873H676.369a1.169,1.169,0,0,1-1.169-1.169v-10.535a1.169,1.169,0,0,1,1.169-1.169h22.673a1.169,1.169,0,0,1,1.169,1.169V1848.7A1.16,1.16,0,0,1,699.042,1849.873Z" transform="translate(-675.2 -1837)" fill="#fff" stroke="#88bed7" stroke-miterlimit="10" stroke-width="5"/><path d="M794.071,1931.32h-7.8a.477.477,0,0,1-.476-.476v-.068a.477.477,0,0,1,.476-.476h7.8a.477.477,0,0,1,.476.476v.068A.473.473,0,0,1,794.071,1931.32Z" transform="translate(-778.283 -1923.959)" fill="#e4effd"/><path d="M803.071,1925.038h-7.8a.47.47,0,0,1-.469-.469h0a.47.47,0,0,1,.469-.469h7.8a.47.47,0,0,1,.469.469h0A.461.461,0,0,1,803.071,1925.038Z" transform="translate(-786.671 -1918.181)" fill="none" stroke="#fa4d56" stroke-miterlimit="10" stroke-width="5"/></g><g transform="translate(11.704 52.129)"><path d="M699.042,2060.672H676.369a1.169,1.169,0,0,1-1.169-1.169v-10.535a1.169,1.169,0,0,1,1.169-1.169h22.673a1.169,1.169,0,0,1,1.169,1.169V2059.5A1.16,1.16,0,0,1,699.042,2060.672Z" transform="translate(-675.2 -2047.8)" fill="#fff" stroke="#88bed7" stroke-miterlimit="10" stroke-width="5"/><path d="M794.071,2142.12h-7.8a.477.477,0,0,1-.476-.476v-.068a.477.477,0,0,1,.476-.476h7.8a.477.477,0,0,1,.476.476v.068A.473.473,0,0,1,794.071,2142.12Z" transform="translate(-778.283 -2134.759)" fill="#e4effd"/><path d="M803.071,2135.739h-7.8a.47.47,0,0,1-.469-.469h0a.47.47,0,0,1,.469-.469h7.8a.47.47,0,0,1,.469.469h0A.461.461,0,0,1,803.071,2135.739Z" transform="translate(-786.671 -2128.887)" fill="none" stroke="#fa4d56" stroke-miterlimit="10" stroke-width="5"/></g><path d="M970.3,1414.1h2.481a8.635,8.635,0,0,1,8.632,8.631V1442.9a6.225,6.225,0,0,0,6.226,6.225h30.244a5.761,5.761,0,0,0,4.887-8.462l-1.923-3.582" transform="translate(-938.54 -1405.04)" fill="none" stroke="#fa4d56" stroke-miterlimit="10" stroke-width="5"/><rect width="21.253" height="2.963" transform="translate(8.203 18.765)" fill="none" stroke="#88bed7" stroke-miterlimit="10" stroke-width="5"/><g transform="translate(2.617)"><path d="M551.124,1299.565h-8.638a.986.986,0,0,1-.985-.986v-16.794a.986.986,0,0,1,.985-.985h8.638Z" transform="translate(-541.5 -1280.8)" fill="#fff" stroke="#88bed7" stroke-miterlimit="10" stroke-width="5"/><path d="M606.995,1299.565h-21.7a1.577,1.577,0,0,1-1.5-1.087l-5.369-16.563a.852.852,0,0,1,.809-1.115h21.7a1.577,1.577,0,0,1,1.5,1.087l5.369,16.563A.849.849,0,0,1,606.995,1299.565Z" transform="translate(-575.88 -1280.8)" fill="#fff" stroke="#88bed7" stroke-miterlimit="10" stroke-width="5"/><path d="M630.369,1313.46H616.66a.994.994,0,0,1-.945-.686l-3.391-10.467a.54.54,0,0,1,.51-.707h13.708a.994.994,0,0,1,.945.687l3.391,10.466A.538.538,0,0,1,630.369,1313.46Z" transform="translate(-607.485 -1300.186)" fill="#fa4d56"/><path d="M805.46,1431.876l-1.06-3.276h4.785" transform="translate(-786.532 -1418.555)" fill="none" stroke="#fff" stroke-miterlimit="10" stroke-width="2"/><path d="M901.893,1434.786h-.1a2.024,2.024,0,0,1-1.74-1.121h0a1.273,1.273,0,0,1,1.081-1.964h.1a2.024,2.024,0,0,1,1.74,1.121h0A1.272,1.272,0,0,1,901.893,1434.786Z" transform="translate(-875.522 -1421.444)" fill="#cbe1fd"/><path d="M909.193,1432.186h-.1a2.024,2.024,0,0,1-1.74-1.121h0a1.273,1.273,0,0,1,1.081-1.964h.1a2.024,2.024,0,0,1,1.74,1.121h0A1.272,1.272,0,0,1,909.193,1432.186Z" transform="translate(-882.326 -1419.021)" fill="none" stroke="#fa4d56" stroke-miterlimit="10" stroke-width="4"/><g transform="translate(20.957 1.414)"><path d="M851.925,1302.966h-1.577a.116.116,0,0,1-.109-.081l-.387-1.2a.061.061,0,0,1,.061-.082h1.577a.116.116,0,0,1,.109.082l.387,1.2A.064.064,0,0,1,851.925,1302.966Z" transform="translate(-849.848 -1301.6)" fill="#cbe1fd"/><path d="M888.525,1302.966h-1.577a.117.117,0,0,1-.109-.081l-.387-1.2a.061.061,0,0,1,.061-.082h1.577a.116.116,0,0,1,.109.082l.387,1.2A.064.064,0,0,1,888.525,1302.966Z" transform="translate(-883.961 -1301.6)" fill="#cbe1fd"/></g><g transform="translate(21.589 3.466)"><path d="M861.225,1333.166h-1.577a.116.116,0,0,1-.109-.082l-.387-1.2a.061.061,0,0,1,.061-.081h1.577a.116.116,0,0,1,.109.081l.387,1.2A.067.067,0,0,1,861.225,1333.166Z" transform="translate(-859.149 -1331.8)" fill="#cbe1fd"/><path d="M897.825,1333.166h-1.577a.116.116,0,0,1-.109-.082l-.387-1.2a.061.061,0,0,1,.061-.081h1.577a.116.116,0,0,1,.109.081l.387,1.2A.067.067,0,0,1,897.825,1333.166Z" transform="translate(-893.261 -1331.8)" fill="#cbe1fd"/></g><g transform="translate(22.337 5.695)"><path d="M872.225,1365.966h-1.577a.116.116,0,0,1-.109-.082l-.387-1.2a.061.061,0,0,1,.061-.082h1.577a.116.116,0,0,1,.109.082l.387,1.2A.061.061,0,0,1,872.225,1365.966Z" transform="translate(-870.149 -1364.6)" fill="#cbe1fd"/><path d="M908.825,1365.966h-1.577a.116.116,0,0,1-.109-.082l-.387-1.2a.061.061,0,0,1,.061-.082h1.577a.116.116,0,0,1,.109.082l.387,1.2A.064.064,0,0,1,908.825,1365.966Z" transform="translate(-904.261 -1364.6)" fill="#cbe1fd"/></g><g transform="translate(23.098 8.02)"><path d="M883.425,1400.166h-1.577a.116.116,0,0,1-.109-.081l-.387-1.2a.061.061,0,0,1,.061-.081h1.577a.116.116,0,0,1,.109.081l.387,1.2A.063.063,0,0,1,883.425,1400.166Z" transform="translate(-881.349 -1398.8)" fill="#cbe1fd"/><path d="M920.025,1400.166h-1.577a.116.116,0,0,1-.109-.081l-.387-1.2a.061.061,0,0,1,.061-.082h1.57a.116.116,0,0,1,.109.082l.387,1.2A.06.06,0,0,1,920.025,1400.166Z" transform="translate(-915.461 -1398.8)" fill="#cbe1fd"/></g><path d="M621.6,1326.723h1.359l.347-1.223.761,2.331.02-1.162,1.686-.014.347-1.155.761,2.331.02-1.162,1.685-.014.347-1.155.761,2.331.02-1.162,1.685-.014.347-1.155.761,2.331.02-1.162,1.618-.014.347-1.155.761,2.331.02-1.162,1.556-.014" transform="translate(-616.156 -1322.462)" fill="none" stroke="#fff" stroke-miterlimit="10" stroke-width="2"/><path d="M651.683,1382l-.523.843-.326-.476v1.013l-.68-1.38-.2,1.38-.666-1.38-.523.843-.32-.476v1.013l-.686-1.38-.652,1.38-.659-1.38-.523.843-.326-.476v1.013l-.68-1.38-.2,1.38-.666-1.38-.523.843-.319-.476v1.013l-.686-1.38v.843l-.455-.5-.265,1.04-.659-1.38-.523.843-.326-.476v1.013l-.68-1.38-.2,1.38-.666-1.38-.523.843-.319-.476v1.013l-.686-1.38-.727.639" transform="translate(-630.043 -1375.122)" fill="none" stroke="#fff" stroke-linejoin="round" stroke-miterlimit="10" stroke-width="2"/><g transform="translate(19.125 10.732)"><path d="M822.9,1438.7h.836a.145.145,0,0,1,.136.109l.17.727" transform="translate(-822.9 -1438.7)" fill="none" stroke="#fff" stroke-linecap="round" stroke-miterlimit="10" stroke-width="2"/><line x2="0.184" y2="0.822" transform="translate(1.189 1.053)" fill="none" stroke="#fff" stroke-linecap="round" stroke-miterlimit="10" stroke-width="2"/><g transform="translate(1.533)"><path d="M846.377,1438.7h-.836a.082.082,0,0,0-.082.109l.17.727" transform="translate(-845.456 -1438.7)" fill="none" stroke="#fff" stroke-linecap="round" stroke-miterlimit="10" stroke-width="2"/><path d="M849.7,1453.545h-.734a.145.145,0,0,1-.136-.109l-.17-.727a.082.082,0,0,1,.082-.109h.734a.145.145,0,0,1,.129.1l.17.741A.076.076,0,0,1,849.7,1453.545Z" transform="translate(-848.439 -1451.655)" fill="none" stroke="#fff" stroke-linecap="round" stroke-miterlimit="10" stroke-width="2"/></g></g><g transform="translate(11.636 10.67)"><g transform="translate(2.104)"><path d="M744.577,1437.8h-.836a.082.082,0,0,0-.082.109l.17.727" transform="translate(-743.656 -1437.8)" fill="none" stroke="#fff" stroke-linecap="round" stroke-miterlimit="10" stroke-width="2"/><path d="M748.1,1451.8h.734a.146.146,0,0,1,.129.1l.17.741a.079.079,0,0,1-.082.1h-.863" transform="translate(-747.798 -1450.849)" fill="none" stroke="#fff" stroke-linecap="round" stroke-miterlimit="10" stroke-width="2"/></g><g transform="translate(0 0.061)"><line x2="0.197" y2="0.836" fill="none" stroke="#fff" stroke-linecap="round" stroke-miterlimit="10" stroke-width="2"/><line x2="0.19" y2="0.822" transform="translate(0.245 1.053)" fill="none" stroke="#fff" stroke-linecap="round" stroke-miterlimit="10" stroke-width="2"/><g transform="translate(0.595)"><path d="M721.629,1439.536l-.17-.727a.082.082,0,0,1,.082-.109h.768" transform="translate(-721.456 -1438.7)" fill="none" stroke="#fff" stroke-linecap="round" stroke-miterlimit="10" stroke-width="2"/><path d="M723.453,1439.475l-.136-.666c-.007-.109-.088-.109-.15-.109H722.4" transform="translate(-722.336 -1438.7)" fill="none" stroke="#fff" stroke-linecap="round" stroke-miterlimit="10" stroke-width="2"/><path d="M725.552,1454.1l.17.741a.079.079,0,0,1-.082.1h-.734a.145.145,0,0,1-.136-.109l-.17-.727" transform="translate(-724.386 -1453.053)" fill="none" stroke="#fff" stroke-linecap="round" stroke-miterlimit="10" stroke-width="2"/></g></g></g><line x1="10.521" transform="translate(7.347 10.045)" fill="none" stroke="#fff" stroke-miterlimit="10" stroke-width="2"/></g></g><ellipse cx="0.353" cy="0.353" rx="0.353" ry="0.353" transform="translate(239.243 29.918)" fill="#40465c"/><ellipse cx="0.353" cy="0.353" rx="0.353" ry="0.353" transform="translate(242.172 29.918)" fill="#40465c"/><ellipse cx="0.272" cy="0.272" rx="0.272" ry="0.272" transform="translate(161.572 34.431)" fill="#40465c"/><ellipse cx="0.272" cy="0.272" rx="0.272" ry="0.272" transform="translate(158.983 34.431)" fill="#40465c"/><path d="M3847.49,917.8l-.49,2.032h.816" transform="translate(-3606.541 -887.841)" fill="none" stroke="#40465c" stroke-linecap="round" stroke-linejoin="round" stroke-miterlimit="10" stroke-width="4.811"/><g transform="translate(103.843 61.549)"><ellipse cx="0.353" cy="0.353" rx="0.353" ry="0.353" transform="translate(2.922)" fill="#40465c"/><ellipse cx="0.353" cy="0.353" rx="0.353" ry="0.353" fill="#40465c"/><path d="M1860.726,1383.1l.5,2.263h-.822" transform="translate(-1858.803 -1383.066)" fill="none" stroke="#40465c" stroke-linecap="round" stroke-linejoin="round" stroke-miterlimit="10" stroke-width="4.811"/><path d="M1838.7,1424.8a2.223,2.223,0,0,0,1.822.462" transform="translate(-1838.578 -1421.932)" fill="none" stroke="#40465c" stroke-linecap="round" stroke-linejoin="round" stroke-miterlimit="10" stroke-width="4.811"/></g><path d="M3854.3,957.514a1.248,1.248,0,0,0,1.414-.714" transform="translate(-3613.344 -924.191)" fill="none" stroke="#40465c" stroke-linecap="round" stroke-linejoin="round" stroke-miterlimit="10" stroke-width="4.811"/><line x1="0.265" y2="1.386" transform="translate(159.758 34.879)" stroke-width="4" stroke="#40465c" stroke-linecap="round" stroke-linejoin="round" stroke-miterlimit="10" fill="none"/><path d="M2663.5,1019.647a1.3,1.3,0,0,0,1.353-.347" transform="translate(-2503.477 -982.443)" fill="none" stroke="#40465c" stroke-linecap="round" stroke-linejoin="round" stroke-miterlimit="10" stroke-width="4"/></g></g></svg>